Montserrat-BlackItalic.ufo
<glyph name="ampersand" format="2">
  <advance width="777"/>
  <unicode hex="0026"/>
  <outline>
    <contour>
      <point x="280" y="-16" type="curve" smooth="yes"/>
      <point x="496" y="-16"/>
      <point x="672" y="131"/>
      <point x="760" y="338" type="curve"/>
      <point x="589" y="392" type="line"/>
      <point x="532" y="241"/>
      <point x="417" y="152"/>
      <point x="320" y="152" type="curve" smooth="yes"/>
      <point x="261" y="152"/>
      <point x="235" y="179"/>
      <point x="235" y="210" type="curve" smooth="yes"/>
      <point x="235" y="261"/>
      <point x="296" y="292"/>
      <point x="367" y="316" type="curve" smooth="yes"/>
      <point x="517" y="367"/>
      <point x="638" y="432"/>
      <point x="638" y="553" type="curve" smooth="yes"/>
      <point x="638" y="657"/>
      <point x="544" y="712"/>
      <point x="419" y="712" type="curve" smooth="yes"/>
      <point x="277" y="712"/>
      <point x="151" y="633"/>
      <point x="151" y="495" type="curve" smooth="yes"/>
      <point x="151" y="442"/>
      <point x="173" y="396"/>
      <point x="217" y="351" type="curve" smooth="yes"/>
      <point x="568" y="-13" type="line"/>
      <point x="717" y="124" type="line"/>
      <point x="411" y="437" type="line" smooth="yes"/>
      <point x="370" y="479"/>
      <point x="357" y="497"/>
      <point x="357" y="517" type="curve" smooth="yes"/>
      <point x="357" y="547"/>
      <point x="380" y="566"/>
      <point x="410" y="566" type="curve" smooth="yes"/>
      <point x="433" y="566"/>
      <point x="448" y="554"/>
      <point x="448" y="535" type="curve" smooth="yes"/>
      <point x="448" y="507"/>
      <point x="427" y="479"/>
      <point x="298" y="436" type="curve" smooth="yes"/>
      <point x="141" y="384"/>
      <point x="9" y="309"/>
      <point x="9" y="172" type="curve" smooth="yes"/>
      <point x="9" y="54"/>
      <point x="128" y="-16"/>
    </contour>
  </outline>
</glyph>
<glyph name="parenleft" format="2">
  <advance width="381"/>
  <unicode hex="0028"/>
  <outline>
    <contour>
      <point x="94" y="-194" type="curve"/>
      <point x="302" y="-194" type="line"/>
      <point x="268" y="-95"/>
      <point x="252" y="2"/>
      <point x="252" y="101" type="curve" smooth="yes"/>
      <point x="252" y="329"/>
      <point x="325" y="527"/>
      <point x="489" y="742" type="curve"/>
      <point x="266" y="742" type="line"/>
      <point x="115" y="574"/>
      <point x="33" y="349"/>
      <point x="33" y="113" type="curve" smooth="yes"/>
      <point x="33" y="-6"/>
      <point x="61" y="-130"/>
    </contour>
  </outline>
</glyph>
<glyph name="parenright" format="2">
  <advance width="381"/>
  <unicode hex="0029"/>
  <outline>
    <contour>
      <point x="-107" y="-194" type="curve"/>
      <point x="116" y="-194" type="line"/>
      <point x="266" y="-26"/>
      <point x="349" y="199"/>
      <point x="349" y="435" type="curve" smooth="yes"/>
      <point x="349" y="554"/>
      <point x="321" y="678"/>
      <point x="288" y="742" type="curve"/>
      <point x="80" y="742" type="line"/>
      <point x="114" y="643"/>
      <point x="130" y="546"/>
      <point x="130" y="447" type="curve" smooth="yes"/>
      <point x="130" y="219"/>
      <point x="57" y="21"/>
    </contour>
  </outline>
</glyph>
<glyph name="hyphen" format="2">
  <advance width="390"/>
  <unicode hex="002D"/>
  <outline>
    <contour>
      <point x="31" y="204" type="line"/>
      <point x="331" y="204" type="line"/>
      <point x="365" y="374" type="line"/>
      <point x="65" y="374" type="line"/>
    </contour>
  </outline>
</glyph>
<glyph name="slash" format="2">
  <advance width="440"/>
  <unicode hex="002F"/>
  <outline>
    <contour>
      <point x="-115" y="-100" type="line"/>
      <point x="91" y="-100" type="line"/>
      <point x="603" y="842" type="line"/>
      <point x="397" y="842" type="line"/>
    </contour>
  </outline>
</glyph>
<glyph name="three" format="2">
  <advance width="614"/>
  <unicode hex="0033"/>
  <outline>
    <contour>
      <point x="226" y="-16" type="curve" smooth="yes"/>
      <point x="428" y="-16"/>
      <point x="581" y="95"/>
      <point x="581" y="246" type="curve" smooth="yes"/>
      <point x="581" y="359"/>
      <point x="487" y="433"/>
      <point x="342" y="433" type="curve" smooth="yes"/>
      <point x="290" y="433" type="line"/>
      <point x="395" y="371" type="line"/>
      <point x="608" y="555" type="line"/>
      <point x="637" y="700" type="line"/>
      <point x="115" y="700" type="line"/>
      <point x="79" y="522" type="line"/>
      <point x="428" y="522" type="line"/>
      <point x="418" y="601" type="line"/>
      <point x="205" y="417" type="line"/>
      <point x="176" y="272" type="line"/>
      <point x="273" y="272" type="line" smooth="yes"/>
      <point x="321" y="272"/>
      <point x="343" y="258"/>
      <point x="343" y="230" type="curve" smooth="yes"/>
      <point x="343" y="191"/>
      <point x="307" y="170"/>
      <point x="242" y="170" type="curve" smooth="yes"/>
      <point x="184" y="170"/>
      <point x="118" y="186"/>
      <point x="63" y="221" type="curve"/>
      <point x="-44" y="57" type="line"/>
      <point x="30" y="7"/>
      <point x="126" y="-16"/>
    </contour>
  </outline>
</glyph>
<glyph name="six" format="2">
  <advance width="661"/>
  <unicode hex="0036"/>
  <outline>
    <contour>
      <point x="333" y="-16" type="curve" smooth="yes"/>
      <point x="512" y="-16"/>
      <point x="641" y="88"/>
      <point x="641" y="251" type="curve" smooth="yes"/>
      <point x="641" y="383"/>
      <point x="533" y="453"/>
      <point x="422" y="453" type="curve" smooth="yes"/>
      <point x="334" y="453"/>
      <point x="274" y="415"/>
      <point x="229" y="337" type="curve"/>
      <point x="278" y="308" type="line"/>
      <point x="279" y="328"/>
      <point x="280" y="347"/>
      <point x="284" y="367" type="curve" smooth="yes"/>
      <point x="304" y="467"/>
      <point x="360" y="533"/>
      <point x="471" y="533" type="curve" smooth="yes"/>
      <point x="519" y="533"/>
      <point x="560" y="524"/>
      <point x="597" y="499" type="curve"/>
      <point x="704" y="661" type="line"/>
      <point x="656" y="696"/>
      <point x="571" y="716"/>
      <point x="484" y="716" type="curve" smooth="yes"/>
      <point x="169" y="716"/>
      <point x="33" y="473"/>
      <point x="33" y="268" type="curve" smooth="yes"/>
      <point x="33" y="80"/>
      <point x="158" y="-16"/>
    </contour>
    <contour>
      <point x="332" y="147" type="curve" smooth="yes"/>
      <point x="289" y="147"/>
      <point x="266" y="174"/>
      <point x="266" y="212" type="curve" smooth="yes"/>
      <point x="266" y="259"/>
      <point x="300" y="290"/>
      <point x="344" y="290" type="curve" smooth="yes"/>
      <point x="385" y="290"/>
      <point x="410" y="266"/>
      <point x="410" y="227" type="curve" smooth="yes"/>
      <point x="410" y="177"/>
      <point x="374" y="147"/>
    </contour>
  </outline>
</glyph>
<glyph name="M" format="2">
  <advance width="954"/>
  <unicode hex="004D"/>
  <anchor x="421" y="0" name="bottom"/>
  <anchor x="561" y="700" name="top"/>
  <outline>
    <contour>
      <point x="2" y="0" type="line"/>
      <point x="217" y="0" type="line"/>
      <point x="292" y="376" type="line"/>
      <point x="252" y="379" type="line"/>
      <point x="388" y="63" type="line"/>
      <point x="492" y="63" type="line"/>
      <point x="734" y="378" type="line"/>
      <point x="700" y="376" type="line"/>
      <point x="627" y="0" type="line"/>
      <point x="842" y="0" type="line"/>
      <point x="980" y="700" type="line"/>
      <point x="779" y="700" type="line"/>
      <point x="419" y="243" type="line"/>
      <point x="521" y="243" type="line"/>
      <point x="334" y="700" type="line"/>
      <point x="142" y="700" type="line"/>
    </contour>
  </outline>
</glyph>
<glyph name="P" format="2">
  <advance width="743"/>
  <unicode hex="0050"/>
  <outline>
    <contour>
      <point x="2" y="0" type="line"/>
      <point x="238" y="0" type="line"/>
      <point x="293" y="275" type="line"/>
      <point x="167" y="172" type="line"/>
      <point x="393" y="172" type="line" smooth="yes"/>
      <point x="608" y="172"/>
      <point x="747" y="291"/>
      <point x="747" y="468" type="curve" smooth="yes"/>
      <point x="747" y="614"/>
      <point x="641" y="700"/>
      <point x="453" y="700" type="curve" smooth="yes"/>
      <point x="142" y="700" type="line"/>
    </contour>
    <contour>
      <point x="287" y="247" type="line"/>
      <point x="363" y="628" type="line"/>
      <point x="237" y="518" type="line"/>
      <point x="420" y="518" type="line" smooth="yes"/>
      <point x="474" y="518"/>
      <point x="508" y="497"/>
      <point x="508" y="447" type="curve" smooth="yes"/>
      <point x="508" y="388"/>
      <point x="470" y="354"/>
      <point x="405" y="354" type="curve" smooth="yes"/>
      <point x="204" y="354" type="line"/>
    </contour>
  </outline>
</glyph>
<glyph name="V" format="2">
  <advance width="786"/>
  <unicode hex="0056"/>
  <guideline x="433" y="350" angle="113.6122"/>
  <outline>
    <contour>
      <point x="222" y="0" type="line"/>
      <point x="454" y="0" type="line"/>
      <point x="890" y="700" type="line"/>
      <point x="648" y="700" type="line"/>
      <point x="280" y="107" type="line"/>
      <point x="434" y="107" type="line"/>
      <point x="308" y="700" type="line"/>
      <point x="66" y="700" type="line"/>
    </contour>
  </outline>
</glyph>
<glyph name="backslash" format="2">
  <advance width="440"/>
  <unicode hex="005C"/>
  <outline>
    <contour>
      <point x="405" y="-100" type="line"/>
      <point x="256" y="842" type="line"/>
      <point x="64" y="842" type="line"/>
      <point x="213" y="-100" type="line"/>
    </contour>
  </outline>
</glyph>
<glyph name="asciicircum" format="2">
  <advance width="620"/>
  <unicode hex="005E"/>
  <outline>
    <contour>
      <point x="9" y="139" type="line"/>
      <point x="188" y="139" type="line"/>
      <point x="415" y="508" type="line"/>
      <point x="317" y="508" type="line"/>
      <point x="396" y="139" type="line"/>
      <point x="557" y="139" type="line"/>
      <point x="456" y="561" type="line"/>
      <point x="278" y="561" type="line"/>
    </contour>
  </outline>
</glyph>
<glyph name="x" format="2">
  <advance width="645"/>
  <unicode hex="0078"/>
  <outline>
    <contour>
      <point x="-68" y="0" type="line"/>
      <point x="187" y="0" type="line"/>
      <point x="364" y="193" type="line"/>
      <point x="256" y="193" type="line"/>
      <point x="352" y="0" type="line"/>
      <point x="592" y="0" type="line"/>
      <point x="415" y="332" type="line"/>
      <point x="395" y="216" type="line"/>
      <point x="713" y="547" type="line"/>
      <point x="466" y="547" type="line"/>
      <point x="291" y="358" type="line"/>
      <point x="395" y="358" type="line"/>
      <point x="300" y="547" type="line"/>
      <point x="63" y="547" type="line"/>
      <point x="232" y="227" type="line"/>
      <point x="264" y="340" type="line"/>
    </contour>
  </outline>
</glyph>
<glyph name="bar" format="2">
  <advance width="320"/>
  <unicode hex="007C"/>
  <outline>
    <contour>
      <point x="-36" y="-194" type="line"/>
      <point x="170" y="-194" type="line"/>
      <point x="357" y="742" type="line"/>
      <point x="151" y="742" type="line"/>
    </contour>
  </outline>
</glyph>
<glyph name="braceright" format="2">
  <advance width="438"/>
  <unicode hex="007D"/>
  <outline>
    <contour>
      <point x="-83" y="-194" type="line"/>
      <point x="-9" y="-194" type="line" smooth="yes"/>
      <point x="155" y="-194"/>
      <point x="236" y="-131"/>
      <point x="266" y="19" type="curve" smooth="yes"/>
      <point x="291" y="145" type="line" smooth="yes"/>
      <point x="297" y="175"/>
      <point x="318" y="189"/>
      <point x="343" y="189" type="curve" smooth="yes"/>
      <point x="376" y="189" type="line"/>
      <point x="410" y="359" type="line"/>
      <point x="377" y="359" type="line" smooth="yes"/>
      <point x="352" y="359"/>
      <point x="337" y="373"/>
      <point x="343" y="403" type="curve" smooth="yes"/>
      <point x="368" y="529" type="line" smooth="yes"/>
      <point x="393" y="654"/>
      <point x="323" y="742"/>
      <point x="178" y="742" type="curve" smooth="yes"/>
      <point x="104" y="742" type="line"/>
      <point x="70" y="572" type="line"/>
      <point x="80" y="572" type="line" smooth="yes"/>
      <point x="124" y="572"/>
      <point x="145" y="544"/>
      <point x="136" y="500" type="curve" smooth="yes"/>
      <point x="118" y="408" type="line" smooth="yes"/>
      <point x="100" y="318"/>
      <point x="137" y="270"/>
      <point x="244" y="262" type="curve"/>
      <point x="249" y="286" type="line"/>
      <point x="126" y="278"/>
      <point x="86" y="250"/>
      <point x="64" y="140" type="curve" smooth="yes"/>
      <point x="45" y="45" type="line" smooth="yes"/>
      <point x="35" y="-4"/>
      <point x="14" y="-24"/>
      <point x="-39" y="-24" type="curve" smooth="yes"/>
      <point x="-49" y="-24" type="line"/>
    </contour>
  </outline>
</glyph>
<glyph name="sterling" format="2">
  <advance width="694"/>
  <unicode hex="00A3"/>
  <outline>
    <contour>
      <point x="69" y="20" type="line"/>
      <point x="305" y="20" type="line"/>
      <point x="382" y="405" type="line" smooth="yes"/>
      <point x="400" y="493"/>
      <point x="452" y="525"/>
      <point x="535" y="525" type="curve" smooth="yes"/>
      <point x="578" y="525"/>
      <point x="621" y="518"/>
      <point x="664" y="498" type="curve"/>
      <point x="758" y="672" type="line"/>
      <point x="707" y="700"/>
      <point x="637" y="716"/>
      <point x="552" y="716" type="curve" smooth="yes"/>
      <point x="348" y="716"/>
      <point x="190" y="623"/>
      <point x="145" y="400" type="curve" smooth="yes"/>
    </contour>
    <contour>
      <point x="-25" y="0" type="line"/>
      <point x="605" y="0" type="line"/>
      <point x="641" y="178" type="line"/>
      <point x="11" y="178" type="line"/>
    </contour>
    <contour>
      <point x="32" y="284" type="line"/>
      <point x="568" y="284" type="line"/>
      <point x="594" y="416" type="line"/>
      <point x="58" y="416" type="line"/>
    </contour>
  </outline>
</glyph>
<glyph name="yen" format="2">
  <advance width="770"/>
  <unicode hex="00A5"/>
  <outline>
    <contour>
      <point x="212" y="0" type="line"/>
      <point x="448" y="0" type="line"/>
      <point x="509" y="307" type="line"/>
      <point x="429" y="166" type="line"/>
      <point x="882" y="700" type="line"/>
      <point x="639" y="700" type="line"/>
      <point x="318" y="319" type="line"/>
      <point x="469" y="319" type="line"/>
      <point x="298" y="700" type="line"/>
      <point x="58" y="700" type="line"/>
      <point x="299" y="186" type="line"/>
      <point x="273" y="307" type="line"/>
    </contour>
    <contour>
      <point x="64" y="60" type="line"/>
      <point x="620" y="60" type="line"/>
      <point x="642" y="172" type="line"/>
      <point x="86" y="172" type="line"/>
    </contour>
    <contour>
      <point x="92" y="198" type="line"/>
      <point x="648" y="198" type="line"/>
      <point x="670" y="310" type="line"/>
      <point x="114" y="310" type="line"/>
    </contour>
  </outline>
</glyph>
<glyph name="Uogonek" format="2">
  <advance width="784"/>
  <unicode hex="0172"/>
  <outline>
    <contour>
      <point x="384" y="175" type="curve" smooth="yes"/>
      <point x="341" y="175"/>
      <point x="312" y="190"/>
      <point x="298" y="222" type="curve" smooth="yes"/>
      <point x="289" y="245"/>
      <point x="288" y="277"/>
      <point x="296" y="319" type="curve"/>
      <point x="372" y="700" type="line"/>
      <point x="136" y="700" type="line"/>
      <point x="59" y="315" type="line"/>
      <point x="48" y="260"/>
      <point x="49" y="211"/>
      <point x="60" y="169" type="curve" smooth="yes"/>
      <point x="84" y="79"/>
      <point x="153" y="18"/>
      <point x="250" y="-4" type="curve"/>
      <point x="255" y="-5"/>
      <point x="260" y="-7"/>
      <point x="265" y="-8" type="curve"/>
      <point x="217" y="-33"/>
      <point x="189" y="-83"/>
      <point x="189" y="-132" type="curve" smooth="yes"/>
      <point x="189" y="-200"/>
      <point x="247" y="-240"/>
      <point x="335" y="-240" type="curve" smooth="yes"/>
      <point x="378" y="-240"/>
      <point x="416" y="-230"/>
      <point x="443" y="-217" type="curve"/>
      <point x="434" y="-124" type="line"/>
      <point x="418" y="-131"/>
      <point x="396" y="-138"/>
      <point x="374" y="-138" type="curve" smooth="yes"/>
      <point x="346" y="-138"/>
      <point x="328" y="-122"/>
      <point x="328" y="-97" type="curve" smooth="yes"/>
      <point x="328" y="-60"/>
      <point x="360" y="-29"/>
      <point x="465" y="-5" type="curve" smooth="yes"/>
      <point x="614" y="29"/>
      <point x="705" y="134"/>
      <point x="739" y="305" type="curve"/>
      <point x="818" y="700" type="line"/>
      <point x="586" y="700" type="line"/>
      <point x="510" y="319" type="line"/>
      <point x="503" y="286"/>
      <point x="496" y="260"/>
      <point x="486" y="239" type="curve" smooth="yes"/>
      <point x="464" y="195"/>
      <point x="431" y="175"/>
    </contour>
  </outline>
</glyph>
<glyph name="Gstroke" format="2">
  <advance width="816"/>
  <unicode hex="01E4"/>
  <guideline x="400" y="328" angle="90"/>
  <outline>
    <contour>
      <point x="376.72" y="205.24" type="line"/>
      <point x="790.32" y="205.24" type="line"/>
      <point x="814.08" y="338.52" type="line"/>
      <point x="400.48" y="338.52" type="line"/>
    </contour>
    <component base="G"/>
  </outline>
</glyph>
<glyph name="ringhalfright" format="2">
  <advance width="600"/>
  <unicode hex="02BE"/>
  <outline>
    <contour>
      <point x="379" y="673" type="curve"/>
      <point x="363" y="594" type="line"/>
      <point x="372" y="592"/>
      <point x="380" y="592"/>
      <point x="389" y="592" type="curve" smooth="yes"/>
      <point x="468" y="592"/>
      <point x="529" y="651"/>
      <point x="529" y="726" type="curve" smooth="yes"/>
      <point x="529" y="792"/>
      <point x="481" y="846"/>
      <point x="416" y="858" type="curve"/>
      <point x="400" y="779" type="line"/>
      <point x="425" y="774"/>
      <point x="443" y="754"/>
      <point x="443" y="726" type="curve" smooth="yes"/>
      <point x="443" y="694"/>
      <point x="419" y="672"/>
      <point x="389" y="672" type="curve" smooth="yes"/>
      <point x="386" y="672"/>
      <point x="382" y="672"/>
    </contour>
  </outline>
</glyph>
<glyph name="firsttonechinese" format="2">
  <advance width="600"/>
  <unicode hex="02C9"/>
  <outline>
    <contour>
      <point x="161" y="628" type="line"/>
      <point x="581" y="628" type="line"/>
      <point x="605" y="746" type="line"/>
      <point x="185" y="746" type="line"/>
    </contour>
  </outline>
</glyph>
<glyph name="secondtonechinese" format="2">
  <advance width="600"/>
  <unicode hex="02CA"/>
  <outline>
    <contour>
      <point x="259" y="607" type="line"/>
      <point x="415" y="607" type="line"/>
      <point x="630" y="767" type="line"/>
      <point x="409" y="767" type="line"/>
    </contour>
  </outline>
</glyph>
<glyph name="fourthtonechinese" format="2">
  <advance width="600"/>
  <unicode hex="02CB"/>
  <outline>
    <contour>
      <point x="322" y="607" type="line"/>
      <point x="472" y="607" type="line"/>
      <point x="372" y="767" type="line"/>
      <point x="157" y="767" type="line"/>
    </contour>
  </outline>
</glyph>
<glyph name="verticallinelowmod" format="2">
  <advance width="206"/>
  <unicode hex="02CC"/>
  <outline>
    <contour>
      <point x="-72" y="-234" type="line"/>
      <point x="76" y="-234" type="line"/>
      <point x="117" y="-30" type="line"/>
      <point x="-31" y="-30" type="line"/>
    </contour>
  </outline>
</glyph>
<glyph name="dieresiscomb" format="2">
  <unicode hex="0308"/>
  <anchor x="355" y="547" name="_top"/>
  <anchor x="394" y="740" name="top"/>
  <outline>
    <contour>
      <point x="487" y="599" type="curve" smooth="yes"/>
      <point x="538" y="599"/>
      <point x="584" y="637"/>
      <point x="584" y="696" type="curve" smooth="yes"/>
      <point x="584" y="745"/>
      <point x="548" y="776"/>
      <point x="500" y="776" type="curve" smooth="yes"/>
      <point x="449" y="776"/>
      <point x="403" y="737"/>
      <point x="403" y="678" type="curve" smooth="yes"/>
      <point x="403" y="629"/>
      <point x="439" y="599"/>
    </contour>
    <contour>
      <point x="265" y="599" type="curve" smooth="yes"/>
      <point x="316" y="599"/>
      <point x="362" y="637"/>
      <point x="362" y="696" type="curve" smooth="yes"/>
      <point x="362" y="745"/>
      <point x="326" y="776"/>
      <point x="278" y="776" type="curve" smooth="yes"/>
      <point x="227" y="776"/>
      <point x="181" y="737"/>
      <point x="181" y="678" type="curve" smooth="yes"/>
      <point x="181" y="629"/>
      <point x="217" y="599"/>
    </contour>
  </outline>
</glyph>
<glyph name="caroncomb" format="2">
  <unicode hex="030C"/>
  <anchor x="355" y="547" name="_top"/>
  <anchor x="396" y="750" name="top"/>
  <outline>
    <contour>
      <point x="271" y="607" type="line"/>
      <point x="463" y="607" type="line"/>
      <point x="615" y="767" type="line"/>
      <point x="471" y="767" type="line"/>
      <point x="310" y="637" type="line"/>
      <point x="426" y="637" type="line"/>
      <point x="303" y="767" type="line"/>
      <point x="167" y="767" type="line"/>
    </contour>
  </outline>
</glyph>
<glyph name="pi" format="2">
  <advance width="733"/>
  <unicode hex="03C0"/>
  <outline>
    <contour>
      <point x="13" y="249" type="curve"/>
      <point x="173" y="288" type="line"/>
      <point x="168" y="304"/>
      <point x="166" y="319"/>
      <point x="166" y="333" type="curve" smooth="yes"/>
      <point x="166" y="371"/>
      <point x="186" y="391"/>
      <point x="227" y="391" type="curve" smooth="yes"/>
      <point x="742" y="391" type="line"/>
      <point x="773" y="547" type="line"/>
      <point x="238" y="547" type="line" smooth="yes"/>
      <point x="99" y="547"/>
      <point x="-4" y="471"/>
      <point x="-4" y="339" type="curve" smooth="yes"/>
      <point x="-4" y="305"/>
      <point x="3" y="271"/>
    </contour>
    <contour>
      <point x="112" y="0" type="line"/>
      <point x="300" y="0" type="line"/>
      <point x="423" y="407" type="line"/>
      <point x="235" y="407" type="line"/>
    </contour>
    <contour>
      <point x="377" y="0" type="line"/>
      <point x="565" y="0" type="line"/>
      <point x="646" y="407" type="line"/>
      <point x="458" y="407" type="line"/>
    </contour>
  </outline>
</glyph>
<glyph name="E-cy" format="2">
  <advance width="727"/>
  <unicode hex="0404"/>
  <outline>
    <contour>
      <point x="530" y="433" type="line"/>
      <point x="217" y="433" type="line"/>
      <point x="183" y="263" type="line"/>
      <point x="496" y="263" type="line"/>
    </contour>
    <contour>
      <point x="351" y="-16" type="curve" smooth="yes"/>
      <point x="483" y="-16"/>
      <point x="605" y="37"/>
      <point x="688" y="124" type="curve"/>
      <point x="565" y="257" type="line"/>
      <point x="514" y="205"/>
      <point x="458" y="175"/>
      <point x="397" y="175" type="curve" smooth="yes"/>
      <point x="319" y="175"/>
      <point x="276" y="224"/>
      <point x="276" y="313" type="curve" smooth="yes"/>
      <point x="276" y="431"/>
      <point x="353" y="525"/>
      <point x="466" y="525" type="curve" smooth="yes"/>
      <point x="529" y="525"/>
      <point x="572" y="495"/>
      <point x="602" y="443" type="curve"/>
      <point x="778" y="576" type="line"/>
      <point x="711" y="673"/>
      <point x="603" y="716"/>
      <point x="488" y="716" type="curve" smooth="yes"/>
      <point x="254" y="716"/>
      <point x="35" y="536"/>
      <point x="35" y="287" type="curve" smooth="yes"/>
      <point x="35" y="107"/>
      <point x="150" y="-16"/>
    </contour>
  </outline>
</glyph>
<glyph name="Pe-cy" format="2">
  <advance width="801"/>
  <unicode hex="041F"/>
  <anchor x="452" y="0" name="bottomleft"/>
  <outline>
    <contour>
      <point x="7" y="0" type="line"/>
      <point x="239" y="0" type="line"/>
      <point x="350" y="567" type="line"/>
      <point x="289" y="517" type="line"/>
      <point x="604" y="517" type="line"/>
      <point x="563" y="567" type="line"/>
      <point x="452" y="0" type="line"/>
      <point x="684" y="0" type="line"/>
      <point x="824" y="700" type="line"/>
      <point x="147" y="700" type="line"/>
    </contour>
  </outline>
</glyph>
<glyph name="Ef-cy" format="2">
  <advance width="989"/>
  <unicode hex="0424"/>
  <outline>
    <contour>
      <point x="434" y="40" type="curve"/>
      <point x="500" y="40" type="line"/>
      <point x="802" y="40"/>
      <point x="985" y="175"/>
      <point x="985" y="398" type="curve" smooth="yes"/>
      <point x="985" y="573"/>
      <point x="849" y="665"/>
      <point x="597" y="665" type="curve"/>
      <point x="534" y="665" type="line"/>
      <point x="213" y="665"/>
      <point x="35" y="523"/>
      <point x="35" y="305" type="curve" smooth="yes"/>
      <point x="35" y="131"/>
      <point x="174" y="40"/>
    </contour>
    <contour>
      <point x="479" y="220" type="line"/>
      <point x="324" y="220"/>
      <point x="267" y="249"/>
      <point x="267" y="338" type="curve" smooth="yes"/>
      <point x="267" y="441"/>
      <point x="337" y="485"/>
      <point x="532" y="485" type="curve"/>
      <point x="557" y="485" type="line"/>
      <point x="699" y="485"/>
      <point x="753" y="455"/>
      <point x="753" y="366" type="curve" smooth="yes"/>
      <point x="753" y="264"/>
      <point x="680" y="220"/>
      <point x="501" y="220" type="curve"/>
    </contour>
    <contour>
      <point x="324" y="-36" type="line"/>
      <point x="540" y="-36" type="line"/>
      <point x="694" y="735" type="line"/>
      <point x="478" y="735" type="line"/>
    </contour>
  </outline>
</glyph>
<glyph name="Ha-cy" format="2">
  <advance width="789"/>
  <unicode hex="0425"/>
  <anchor x="459" y="0" name="bottomleft"/>
  <outline>
    <contour>
      <point x="109" y="701" type="line"/>
      <point x="268" y="356" type="line"/>
      <point x="-52" y="0" type="line"/>
      <point x="225" y="0" type="line"/>
      <point x="380" y="181" type="line"/>
      <point x="459" y="0" type="line"/>
      <point x="731" y="0" type="line"/>
      <point x="560" y="367" type="line"/>
      <point x="856" y="701" type="line"/>
      <point x="578" y="701" type="line"/>
      <point x="440" y="536" type="line"/>
      <point x="374" y="701" type="line"/>
    </contour>
  </outline>
</glyph>
<glyph name="Tse-cy" format="2">
  <advance width="857"/>
  <unicode hex="0426"/>
  <outline>
    <contour>
      <point x="7" y="0" type="line"/>
      <point x="693" y="0" type="line"/>
      <point x="833" y="700" type="line"/>
      <point x="601" y="700" type="line"/>
      <point x="498" y="183" type="line"/>
      <point x="276" y="183" type="line"/>
      <point x="379" y="700" type="line"/>
      <point x="147" y="700" type="line"/>
    </contour>
    <contour>
      <point x="542" y="-137" type="line"/>
      <point x="758" y="-137" type="line"/>
      <point x="822" y="183" type="line"/>
      <point x="498" y="183" type="line"/>
      <point x="461" y="0" type="line"/>
      <point x="616" y="0" type="line"/>
      <point x="577" y="51" type="line"/>
    </contour>
  </outline>
</glyph>
<glyph name="be-cy" format="2">
  <advance width="690"/>
  <unicode hex="0431"/>
  <guideline x="422" y="758" angle="0"/>
  <guideline x="300" y="454" angle="0"/>
  <outline>
    <contour>
      <point x="323" y="-16" type="curve" smooth="yes"/>
      <point x="532" y="-16"/>
      <point x="667" y="99"/>
      <point x="667" y="268" type="curve" smooth="yes"/>
      <point x="667" y="400"/>
      <point x="581" y="476"/>
      <point x="440" y="476" type="curve" smooth="yes"/>
      <point x="349" y="476"/>
      <point x="273" y="444"/>
      <point x="204" y="375" type="curve"/>
      <point x="256" y="307" type="line"/>
      <point x="271" y="466"/>
      <point x="321" y="525"/>
      <point x="468" y="547" type="curve" smooth="yes"/>
      <point x="698" y="582" type="line"/>
      <point x="703" y="770" type="line"/>
      <point x="416" y="723" type="line" smooth="yes"/>
      <point x="179" y="684"/>
      <point x="34" y="494"/>
      <point x="34" y="265" type="curve" smooth="yes"/>
      <point x="34" y="72"/>
      <point x="143" y="-16"/>
    </contour>
    <contour>
      <point x="331" y="151" type="curve" smooth="yes"/>
      <point x="287" y="151"/>
      <point x="257" y="176"/>
      <point x="257" y="224" type="curve" smooth="yes"/>
      <point x="257" y="276"/>
      <point x="291" y="320"/>
      <point x="350" y="320" type="curve" smooth="yes"/>
      <point x="392" y="320"/>
      <point x="421" y="295"/>
      <point x="421" y="246" type="curve" smooth="yes"/>
      <point x="421" y="193"/>
      <point x="388" y="151"/>
    </contour>
  </outline>
</glyph>
<glyph name="ge-cy" format="2">
  <advance width="543"/>
  <unicode hex="0433"/>
  <anchor x="-2" y="0" name="_bottomleft"/>
  <anchor x="-2" y="0" name="bottomleft"/>
  <anchor x="422" y="0" name="bottomright"/>
  <anchor x="349" y="547" name="top"/>
  <outline>
    <contour>
      <point x="-2" y="0" type="line"/>
      <point x="223" y="0" type="line"/>
      <point x="304" y="419" type="line"/>
      <point x="246" y="371" type="line"/>
      <point x="550" y="371" type="line"/>
      <point x="586" y="547" type="line"/>
      <point x="108" y="547" type="line"/>
    </contour>
  </outline>
</glyph>
<glyph name="ii-cy" format="2">
  <advance width="728"/>
  <unicode hex="0438"/>
  <anchor x="395" y="0" name="bottomleft"/>
  <anchor x="619" y="0" name="bottomright"/>
  <anchor x="404" y="547" name="top"/>
  <outline>
    <contour>
      <point x="-2" y="0" type="line"/>
      <point x="210" y="0" type="line"/>
      <point x="448" y="248" type="line"/>
      <point x="395" y="0" type="line"/>
      <point x="620" y="0" type="line"/>
      <point x="730" y="547" type="line"/>
      <point x="519" y="547" type="line"/>
      <point x="280" y="300" type="line"/>
      <point x="333" y="547" type="line"/>
      <point x="108" y="547" type="line"/>
    </contour>
  </outline>
</glyph>
<glyph name="em-cy" format="2">
  <advance width="835"/>
  <unicode hex="043C"/>
  <anchor x="362" y="0" name="bottom"/>
  <anchor x="525" y="0" name="bottomleft"/>
  <anchor x="472" y="547" name="top"/>
  <outline>
    <contour>
      <point x="-2" y="0" type="line"/>
      <point x="201" y="0" type="line"/>
      <point x="267" y="332" type="line"/>
      <point x="229" y="322" type="line"/>
      <point x="325" y="43" type="line"/>
      <point x="420" y="43" type="line"/>
      <point x="621" y="305" type="line"/>
      <point x="588" y="329" type="line"/>
      <point x="525" y="0" type="line"/>
      <point x="728" y="0" type="line"/>
      <point x="836" y="547" type="line"/>
      <point x="621" y="547" type="line"/>
      <point x="356" y="206" type="line"/>
      <point x="450" y="206" type="line"/>
      <point x="344" y="547" type="line"/>
      <point x="108" y="547" type="line"/>
    </contour>
  </outline>
</glyph>
<glyph name="en-cy" format="2">
  <advance width="710"/>
  <unicode hex="043D"/>
  <anchor x="300" y="0" name="bottom"/>
  <anchor x="377" y="0" name="bottomleft"/>
  <anchor x="392" y="458" name="center"/>
  <anchor x="410" y="547" name="top"/>
  <outline>
    <contour>
      <point x="-2" y="0" type="line"/>
      <point x="223" y="0" type="line"/>
      <point x="259" y="178" type="line"/>
      <point x="413" y="178" type="line"/>
      <point x="377" y="0" type="line"/>
      <point x="602" y="0" type="line"/>
      <point x="712" y="547" type="line"/>
      <point x="487" y="547" type="line"/>
      <point x="448" y="355" type="line"/>
      <point x="294" y="355" type="line"/>
      <point x="333" y="547" type="line"/>
      <point x="108" y="547" type="line"/>
    </contour>
  </outline>
</glyph>
<glyph name="tse-cy" format="2">
  <advance width="721"/>
  <unicode hex="0446"/>
  <outline>
    <contour>
      <point x="-2" y="0" type="line"/>
      <point x="580" y="0" type="line"/>
      <point x="690" y="547" type="line"/>
      <point x="465" y="547" type="line"/>
      <point x="391" y="177" type="line"/>
      <point x="259" y="177" type="line"/>
      <point x="333" y="547" type="line"/>
      <point x="108" y="547" type="line"/>
    </contour>
    <contour>
      <point x="423" y="-108" type="line"/>
      <point x="632" y="-108" type="line"/>
      <point x="689" y="177" type="line"/>
      <point x="391" y="177" type="line"/>
      <point x="355" y="0" type="line"/>
      <point x="493" y="0" type="line"/>
      <point x="444" y="0" type="line"/>
    </contour>
  </outline>
</glyph>
<glyph name="dje-cy" format="2">
  <advance width="696"/>
  <unicode hex="0452"/>
  <anchor x="303" y="0" name="bottom"/>
  <anchor x="290" y="640" name="center"/>
  <anchor x="259" y="742" name="top"/>
  <anchor x="367" y="547" name="topright"/>
  <outline>
    <contour>
      <point x="320" y="-204" type="curve" smooth="yes"/>
      <point x="475" y="-204"/>
      <point x="580" y="-113"/>
      <point x="608" y="28" type="curve" smooth="yes"/>
      <point x="662" y="302" type="line" smooth="yes"/>
      <point x="695" y="469"/>
      <point x="602" y="557"/>
      <point x="476" y="557" type="curve" smooth="yes"/>
      <point x="422" y="557"/>
      <point x="370" y="541"/>
      <point x="325" y="505" type="curve"/>
      <point x="372" y="742" type="line"/>
      <point x="146" y="742" type="line"/>
      <point x="-2" y="0" type="line"/>
      <point x="224" y="0" type="line"/>
      <point x="277" y="263" type="line" smooth="yes"/>
      <point x="291" y="334"/>
      <point x="327" y="367"/>
      <point x="378" y="367" type="curve" smooth="yes"/>
      <point x="426" y="367"/>
      <point x="443" y="335"/>
      <point x="431" y="275" type="curve" smooth="yes"/>
      <point x="383" y="30" type="line" smooth="yes"/>
      <point x="374" y="-14"/>
      <point x="351" y="-33"/>
      <point x="322" y="-33" type="curve" smooth="yes"/>
      <point x="307" y="-33"/>
      <point x="288" y="-28"/>
      <point x="275" y="-20" type="curve"/>
      <point x="189" y="-177" type="line"/>
      <point x="221" y="-195"/>
      <point x="271" y="-204"/>
    </contour>
    <contour>
      <point x="25" y="583" type="line"/>
      <point x="545" y="583" type="line"/>
      <point x="567" y="693" type="line"/>
      <point x="47" y="693" type="line"/>
    </contour>
  </outline>
</glyph>
<glyph name="dzhe-cy" format="2">
  <advance width="678"/>
  <unicode hex="045F"/>
  <outline>
    <contour>
      <point x="680" y="547" type="line"/>
      <point x="455" y="547" type="line"/>
      <point x="381" y="177" type="line"/>
      <point x="259" y="177" type="line"/>
      <point x="333" y="547" type="line"/>
      <point x="108" y="547" type="line"/>
      <point x="-2" y="0" type="line"/>
      <point x="179" y="0" type="line"/>
      <point x="158" y="-108" type="line"/>
      <point x="368" y="-108" type="line"/>
      <point x="389" y="0" type="line"/>
      <point x="570" y="0" type="line"/>
    </contour>
  </outline>
</glyph>
<glyph name="Yat-cy" format="2">
  <advance width="849"/>
  <unicode hex="0462"/>
  <anchor x="367" y="580" name="center"/>
  <outline>
    <contour>
      <point x="123" y="0" type="line"/>
      <point x="488" y="0" type="line" smooth="yes"/>
      <point x="673" y="0"/>
      <point x="792" y="83"/>
      <point x="821" y="227" type="curve" smooth="yes"/>
      <point x="852" y="385"/>
      <point x="768" y="475"/>
      <point x="598" y="475" type="curve" smooth="yes"/>
      <point x="450" y="475" type="line"/>
      <point x="504" y="742" type="line"/>
      <point x="272" y="742" type="line"/>
    </contour>
    <contour>
      <point x="388" y="165" type="line"/>
      <point x="418" y="308" type="line"/>
      <point x="518" y="308" type="line" smooth="yes"/>
      <point x="559" y="308"/>
      <point x="588" y="295"/>
      <point x="588" y="258" type="curve" smooth="yes"/>
      <point x="588" y="201"/>
      <point x="542" y="165"/>
      <point x="487" y="165" type="curve" smooth="yes"/>
    </contour>
    <contour>
      <point x="65" y="536" type="line"/>
      <point x="682" y="536" type="line"/>
      <point x="708" y="666" type="line"/>
      <point x="91" y="666" type="line"/>
    </contour>
  </outline>
</glyph>
<glyph name="Ghestroke-cy" format="2">
  <advance width="673"/>
  <unicode hex="0492"/>
  <outline>
    <contour>
      <point x="10" y="253" type="line"/>
      <point x="591" y="253" type="line"/>
      <point x="617" y="383" type="line"/>
      <point x="36" y="383" type="line"/>
    </contour>
    <component base="Ge-cy" xOffset="61"/>
  </outline>
</glyph>
<glyph name="ghestroke-cy" format="2">
  <advance width="580"/>
  <unicode hex="0493"/>
  <outline>
    <contour>
      <point x="-12" y="169" type="line"/>
      <point x="465" y="169" type="line"/>
      <point x="489" y="289" type="line"/>
      <point x="12" y="289" type="line"/>
    </contour>
    <component base="ge-cy" xOffset="37"/>
  </outline>
</glyph>
<glyph name="Kabashkir-cy" format="2">
  <advance width="928"/>
  <unicode hex="04A0"/>
  <anchor x="470" y="0" name="bottom"/>
  <anchor x="610" y="700" name="top"/>
  <outline>
    <contour>
      <point x="65" y="517" type="line"/>
      <point x="477" y="517" type="line"/>
      <point x="513" y="700" type="line"/>
      <point x="101" y="700" type="line"/>
    </contour>
    <contour>
      <point x="596" y="0" type="line"/>
      <point x="866" y="0" type="line"/>
      <point x="721" y="438" type="line"/>
      <point x="517" y="328" type="line"/>
    </contour>
    <contour>
      <point x="141" y="0" type="line"/>
      <point x="373" y="0" type="line"/>
      <point x="513" y="700" type="line"/>
      <point x="281" y="700" type="line"/>
    </contour>
    <contour>
      <point x="356" y="253" type="line"/>
      <point x="632" y="253" type="line"/>
      <point x="669" y="439" type="line"/>
      <point x="393" y="439" type="line"/>
    </contour>
    <contour>
      <point x="729" y="325" type="line"/>
      <point x="997" y="700" type="line"/>
      <point x="746" y="700" type="line"/>
      <point x="510" y="347" type="line"/>
    </contour>
  </outline>
</glyph>
<glyph name="Pemiddlehook-cy" format="2">
  <advance width="1155"/>
  <unicode hex="04A6"/>
  <outline>
    <contour>
      <point x="682" y="-153" type="line"/>
      <point x="911" y="-198"/>
      <point x="1111" y="-45"/>
      <point x="1111" y="182" type="curve" smooth="yes"/>
      <point x="1111" y="371"/>
      <point x="937" y="431"/>
      <point x="727" y="380" type="curve"/>
      <point x="709" y="202" type="line"/>
      <point x="794" y="235"/>
      <point x="879" y="237"/>
      <point x="879" y="163" type="curve" smooth="yes"/>
      <point x="879" y="82"/>
      <point x="814" y="-3"/>
      <point x="735" y="17" type="curve"/>
    </contour>
    <component base="Pe-cy"/>
  </outline>
</glyph>
<glyph name="pemiddlehook-cy" format="2">
  <advance width="1022"/>
  <unicode hex="04A7"/>
  <outline>
    <contour>
      <point x="543" y="-193" type="line"/>
      <point x="775" y="-245"/>
      <point x="975" y="-99"/>
      <point x="975" y="101" type="curve" smooth="yes"/>
      <point x="975" y="276"/>
      <point x="822" y="344"/>
      <point x="592" y="288" type="curve"/>
      <point x="563" y="111" type="line"/>
      <point x="667" y="151"/>
      <point x="738" y="137"/>
      <point x="738" y="66" type="curve" smooth="yes"/>
      <point x="738" y="2"/>
      <point x="680" y="-34"/>
      <point x="605" y="-17" type="curve"/>
    </contour>
    <component base="pe-cy"/>
  </outline>
</glyph>
<glyph name="Haabkhasian-cy" format="2">
  <advance width="1008"/>
  <unicode hex="04A8"/>
  <outline>
    <contour>
      <point x="412" y="-16" type="curve" smooth="yes"/>
      <point x="714" y="-16"/>
      <point x="983" y="216"/>
      <point x="983" y="474" type="curve" smooth="yes"/>
      <point x="983" y="625"/>
      <point x="885" y="716"/>
      <point x="726" y="716" type="curve" smooth="yes"/>
      <point x="521" y="716"/>
      <point x="378" y="562"/>
      <point x="378" y="345" type="curve" smooth="yes"/>
      <point x="378" y="81"/>
      <point x="634" y="-71"/>
      <point x="936" y="2" type="curve"/>
      <point x="951" y="152" type="line"/>
      <point x="748" y="95"/>
      <point x="581" y="183"/>
      <point x="581" y="360" type="curve" smooth="yes"/>
      <point x="581" y="473"/>
      <point x="629" y="551"/>
      <point x="704" y="551" type="curve" smooth="yes"/>
      <point x="752" y="551"/>
      <point x="779" y="519"/>
      <point x="779" y="454" type="curve" smooth="yes"/>
      <point x="779" y="286"/>
      <point x="637" y="138"/>
      <point x="472" y="138" type="curve" smooth="yes"/>
      <point x="355" y="138"/>
      <point x="282" y="211"/>
      <point x="282" y="325" type="curve" smooth="yes"/>
      <point x="282" y="427"/>
      <point x="338" y="542"/>
      <point x="432" y="634" type="curve"/>
      <point x="237" y="716" type="line"/>
      <point x="114" y="603"/>
      <point x="44" y="460"/>
      <point x="44" y="316" type="curve" smooth="yes"/>
      <point x="44" y="113"/>
      <point x="186" y="-16"/>
    </contour>
  </outline>
</glyph>
<glyph name="Ustraitstroke-cy" format="2">
  <advance width="766"/>
  <unicode hex="04B0"/>
  <outline>
    <contour>
      <point x="128.7264" y="162" type="line"/>
      <point x="591.3088" y="162" type="line"/>
      <point x="615.0864" y="272" type="line"/>
      <point x="152.504" y="272" type="line"/>
    </contour>
    <component base="Ustrait-cy"/>
  </outline>
</glyph>
<glyph name="Tetse-cy" format="2">
  <advance width="1016"/>
  <unicode hex="04B4"/>
  <anchor x="280" y="0" name="bottom"/>
  <anchor x="343" y="315" name="center"/>
  <anchor x="420" y="700" name="top"/>
  <outline>
    <contour>
      <point x="166" y="0" type="line"/>
      <point x="398" y="0" type="line"/>
      <point x="509" y="568" type="line"/>
      <point x="448" y="517" type="line"/>
      <point x="647" y="517" type="line"/>
      <point x="683" y="700" type="line"/>
      <point x="101" y="700" type="line"/>
      <point x="65" y="517" type="line"/>
      <point x="318" y="517" type="line"/>
      <point x="277" y="568" type="line"/>
    </contour>
    <component base="Tse-cy" xOffset="159"/>
  </outline>
</glyph>
<glyph name="Shha-cy" format="2">
  <advance width="764"/>
  <unicode hex="04BA"/>
  <anchor x="449" y="0" name="bottomleft"/>
  <outline>
    <contour>
      <point x="449" y="0" type="line"/>
      <point x="681" y="0" type="line"/>
      <point x="722" y="202" type="line" smooth="yes"/>
      <point x="759" y="389"/>
      <point x="664" y="497"/>
      <point x="450" y="497" type="curve" smooth="yes"/>
      <point x="410" y="497"/>
      <point x="359" y="490"/>
      <point x="295" y="468" type="curve"/>
      <point x="276" y="276" type="line"/>
      <point x="307" y="295"/>
      <point x="354" y="310"/>
      <point x="414" y="310" type="curve" smooth="yes"/>
      <point x="482" y="310"/>
      <point x="505" y="279"/>
      <point x="488" y="194" type="curve" smooth="yes"/>
    </contour>
    <contour>
      <point x="7" y="0" type="line"/>
      <point x="239" y="0" type="line"/>
      <point x="379" y="700" type="line"/>
      <point x="147" y="700" type="line"/>
    </contour>
  </outline>
</glyph>
<glyph name="Cheabkhasian-cy" format="2">
  <advance width="1050"/>
  <unicode hex="04BC"/>
  <anchor x="624" y="0" name="bottom"/>
  <anchor x="747" y="700" name="top"/>
  <outline>
    <contour>
      <point x="635" y="-16" type="curve" smooth="yes"/>
      <point x="757" y="-16"/>
      <point x="866" y="25"/>
      <point x="959" y="106" type="curve"/>
      <point x="841" y="249" type="line"/>
      <point x="772" y="196"/>
      <point x="716" y="174"/>
      <point x="651" y="174" type="curve" smooth="yes"/>
      <point x="564" y="174"/>
      <point x="515" y="227"/>
      <point x="515" y="319" type="curve" smooth="yes"/>
      <point x="515" y="437"/>
      <point x="594" y="528"/>
      <point x="695" y="528" type="curve" smooth="yes"/>
      <point x="785" y="528"/>
      <point x="835" y="456"/>
      <point x="813" y="359" type="curve"/>
      <point x="879" y="419" type="line"/>
      <point x="302" y="419" type="line" smooth="yes"/>
      <point x="230" y="419"/>
      <point x="225" y="471"/>
      <point x="287" y="554" type="curve"/>
      <point x="106" y="601" type="line"/>
      <point x="-1" y="414"/>
      <point x="64" y="270"/>
      <point x="257" y="270" type="curve" smooth="yes"/>
      <point x="1023" y="270" type="line"/>
      <point x="1115" y="512"/>
      <point x="976" y="716"/>
      <point x="722" y="716" type="curve" smooth="yes"/>
      <point x="479" y="716"/>
      <point x="280" y="528"/>
      <point x="280" y="301" type="curve" smooth="yes"/>
      <point x="280" y="110"/>
      <point x="422" y="-16"/>
    </contour>
  </outline>
</glyph>
<glyph name="kahook-cy" format="2">
  <advance width="691"/>
  <unicode hex="04C4"/>
  <guideline x="635" y="361" angle="90"/>
  <outline>
    <contour>
      <point x="347" y="-206" type="curve" smooth="yes"/>
      <point x="491" y="-206"/>
      <point x="621" y="-119"/>
      <point x="621" y="35" type="curve" smooth="yes"/>
      <point x="621" y="121"/>
      <point x="559" y="214"/>
      <point x="448" y="344" type="curve"/>
      <point x="259" y="251" type="line"/>
      <point x="335" y="156"/>
      <point x="393" y="78"/>
      <point x="393" y="24" type="curve" smooth="yes"/>
      <point x="393" y="-12"/>
      <point x="373" y="-33"/>
      <point x="339" y="-33" type="curve" smooth="yes"/>
      <point x="325" y="-33"/>
      <point x="310" y="-29"/>
      <point x="294" y="-21" type="curve"/>
      <point x="209" y="-177" type="line"/>
      <point x="253" y="-196"/>
      <point x="301" y="-206"/>
    </contour>
    <contour>
      <point x="-2" y="0" type="line"/>
      <point x="224" y="0" type="line"/>
      <point x="334" y="547" type="line"/>
      <point x="108" y="547" type="line"/>
    </contour>
    <contour>
      <point x="195" y="182" type="line"/>
      <point x="399" y="182" type="line"/>
      <point x="433" y="355" type="line"/>
      <point x="229" y="355" type="line"/>
    </contour>
    <contour>
      <point x="484" y="246" type="line"/>
      <point x="744" y="547" type="line"/>
      <point x="500" y="547" type="line"/>
      <point x="270" y="269" type="line"/>
    </contour>
  </outline>
</glyph>
<glyph name="Enhook-cy" format="2">
  <advance width="812"/>
  <unicode hex="04C7"/>
  <outline>
    <contour>
      <point x="282" y="-173" type="line"/>
      <point x="437" y="-245"/>
      <point x="655" y="-203"/>
      <point x="697" y="11" type="curve" smooth="yes"/>
      <point x="835" y="700" type="line"/>
      <point x="603" y="700" type="line"/>
      <point x="550" y="435" type="line"/>
      <point x="326" y="435" type="line"/>
      <point x="379" y="700" type="line"/>
      <point x="147" y="700" type="line"/>
      <point x="7" y="0" type="line"/>
      <point x="239" y="0" type="line"/>
      <point x="290" y="252" type="line"/>
      <point x="514" y="252" type="line"/>
      <point x="470" y="32" type="line" smooth="yes"/>
      <point x="459" y="-21"/>
      <point x="402" y="-49"/>
      <point x="354" y="-24" type="curve"/>
    </contour>
  </outline>
</glyph>
<glyph name="schwa-cy" format="2">
  <advance width="647"/>
  <unicode hex="04D9"/>
  <anchor x="379" y="547" name="top"/>
  <outline>
    <contour>
      <point x="327" y="557" type="curve" smooth="yes"/>
      <point x="244" y="557"/>
      <point x="163" y="540"/>
      <point x="88" y="489" type="curve"/>
      <point x="182" y="352" type="line"/>
      <point x="217" y="378"/>
      <point x="260" y="390"/>
      <point x="301" y="390" type="curve" smooth="yes"/>
      <point x="372" y="390"/>
      <point x="409" y="364"/>
      <point x="409" y="296" type="curve" smooth="yes"/>
      <point x="409" y="220"/>
      <point x="381" y="144"/>
      <point x="299" y="144" type="curve" smooth="yes"/>
      <point x="242" y="144"/>
      <point x="206" y="183"/>
      <point x="221" y="246" type="curve"/>
      <point x="127" y="217" type="line"/>
      <point x="427" y="217" type="line"/>
      <point x="448" y="326" type="line"/>
      <point x="23" y="326" type="line"/>
      <point x="16" y="297"/>
      <point x="11" y="265"/>
      <point x="11" y="231" type="curve" smooth="yes"/>
      <point x="11" y="90"/>
      <point x="114" y="-10"/>
      <point x="289" y="-10" type="curve" smooth="yes"/>
      <point x="493" y="-10"/>
      <point x="628" y="124"/>
      <point x="628" y="304" type="curve" smooth="yes"/>
      <point x="628" y="459"/>
      <point x="507" y="557"/>
    </contour>
  </outline>
</glyph>
<glyph name="obarred-cy" format="2">
  <advance width="678"/>
  <unicode hex="04E9"/>
  <anchor x="390" y="547" name="top"/>
  <outline>
    <contour>
      <point x="92" y="205" type="line"/>
      <point x="580" y="205" type="line"/>
      <point x="580" y="341" type="line"/>
      <point x="92" y="341" type="line"/>
    </contour>
    <contour>
      <point x="317" y="-10" type="curve" smooth="yes"/>
      <point x="519" y="-10"/>
      <point x="661" y="124"/>
      <point x="661" y="304" type="curve" smooth="yes"/>
      <point x="661" y="457"/>
      <point x="545" y="557"/>
      <point x="361" y="557" type="curve" smooth="yes"/>
      <point x="159" y="557"/>
      <point x="17" y="423"/>
      <point x="17" y="243" type="curve" smooth="yes"/>
      <point x="17" y="90"/>
      <point x="133" y="-10"/>
    </contour>
    <contour>
      <point x="330" y="143" type="curve" smooth="yes"/>
      <point x="273" y="143"/>
      <point x="231" y="178"/>
      <point x="231" y="254" type="curve" smooth="yes"/>
      <point x="231" y="356"/>
      <point x="283" y="405"/>
      <point x="348" y="405" type="curve" smooth="yes"/>
      <point x="405" y="405"/>
      <point x="446" y="370"/>
      <point x="446" y="293" type="curve" smooth="yes"/>
      <point x="446" y="192"/>
      <point x="395" y="143"/>
    </contour>
  </outline>
</glyph>
<glyph name="hahook-cy" format="2">
  <advance width="662"/>
  <unicode hex="04FD"/>
  <outline>
    <contour>
      <point x="-59" y="0" type="line"/>
      <point x="196" y="0" type="line"/>
      <point x="722" y="547" type="line"/>
      <point x="475" y="547" type="line"/>
      <point x="367" y="431" type="line"/>
      <point x="309" y="547" type="line"/>
      <point x="72" y="547" type="line"/>
      <point x="214" y="279" type="line"/>
    </contour>
    <contour>
      <point x="317" y="-206" type="curve" smooth="yes"/>
      <point x="470" y="-206"/>
      <point x="570" y="-125"/>
      <point x="570" y="4" type="curve" smooth="yes"/>
      <point x="570" y="77"/>
      <point x="538" y="145"/>
      <point x="407" y="344" type="curve"/>
      <point x="228" y="251" type="line"/>
      <point x="313" y="122"/>
      <point x="342" y="63"/>
      <point x="342" y="20" type="curve" smooth="yes"/>
      <point x="342" y="-15"/>
      <point x="323" y="-33"/>
      <point x="290" y="-33" type="curve" smooth="yes"/>
      <point x="274" y="-33"/>
      <point x="259" y="-29"/>
      <point x="243" y="-21" type="curve"/>
      <point x="158" y="-177" type="line"/>
      <point x="208" y="-196"/>
      <point x="263" y="-206"/>
    </contour>
  </outline>
</glyph>
<glyph name="Hastroke-cy" format="2">
  <advance width="789"/>
  <unicode hex="04FE"/>
  <guideline x="579" y="742" angle="90"/>
  <outline>
    <contour>
      <point x="91" y="298" type="line"/>
      <point x="708" y="298" type="line"/>
      <point x="734" y="428" type="line"/>
      <point x="117" y="428" type="line"/>
    </contour>
    <contour>
      <point x="109" y="700" type="line"/>
      <point x="268" y="356" type="line"/>
      <point x="-52" y="0" type="line"/>
      <point x="225" y="0" type="line"/>
      <point x="380" y="181" type="line"/>
      <point x="459" y="0" type="line"/>
      <point x="731" y="0" type="line"/>
      <point x="560" y="367" type="line"/>
      <point x="856" y="700" type="line"/>
      <point x="578" y="700" type="line"/>
      <point x="440" y="536" type="line"/>
      <point x="374" y="700" type="line"/>
    </contour>
  </outline>
</glyph>
<glyph name="reversedze-cy" format="2">
  <advance width="585"/>
  <unicode hex="0511"/>
  <outline>
    <contour>
      <point x="279" y="-13" type="curve" smooth="yes"/>
      <point x="370" y="-13"/>
      <point x="455" y="2"/>
      <point x="527" y="29" type="curve"/>
      <point x="499" y="178" type="line"/>
      <point x="444" y="158"/>
      <point x="374" y="147"/>
      <point x="311" y="147" type="curve" smooth="yes"/>
      <point x="251" y="147"/>
      <point x="229" y="157"/>
      <point x="229" y="184" type="curve" smooth="yes"/>
      <point x="229" y="204"/>
      <point x="242" y="213"/>
      <point x="271" y="213" type="curve" smooth="yes"/>
      <point x="402" y="213" type="line"/>
      <point x="427" y="339" type="line"/>
      <point x="316" y="339" type="line" smooth="yes"/>
      <point x="292" y="339"/>
      <point x="281" y="347"/>
      <point x="281" y="365" type="curve" smooth="yes"/>
      <point x="281" y="390"/>
      <point x="304" y="401"/>
      <point x="355" y="401" type="curve" smooth="yes"/>
      <point x="406" y="401"/>
      <point x="458" y="390"/>
      <point x="527" y="367" type="curve"/>
      <point x="607" y="510" type="line"/>
      <point x="535" y="541"/>
      <point x="455" y="557"/>
      <point x="372" y="559" type="curve" smooth="yes"/>
      <point x="179" y="563"/>
      <point x="59" y="491"/>
      <point x="59" y="387" type="curve" smooth="yes"/>
      <point x="59" y="312"/>
      <point x="120" y="262"/>
      <point x="214" y="262" type="curve"/>
      <point x="205" y="292" type="line"/>
      <point x="75" y="292"/>
      <point x="-4" y="235"/>
      <point x="-4" y="147" type="curve" smooth="yes"/>
      <point x="-4" y="44"/>
      <point x="102" y="-13"/>
    </contour>
  </outline>
</glyph>
<glyph name="Elhook-cy" format="2">
  <advance width="807"/>
  <unicode hex="0512"/>
  <outline>
    <contour>
      <point x="277" y="-173" type="line"/>
      <point x="432" y="-245"/>
      <point x="650" y="-203"/>
      <point x="692" y="11" type="curve" smooth="yes"/>
      <point x="830" y="700" type="line"/>
      <point x="239" y="700" type="line"/>
      <point x="175" y="427" type="line" smooth="yes"/>
      <point x="133" y="247"/>
      <point x="97" y="186"/>
      <point x="34" y="186" type="curve" smooth="yes"/>
      <point x="26" y="186"/>
      <point x="17" y="187"/>
      <point x="9" y="189" type="curve"/>
      <point x="-41" y="0" type="line"/>
      <point x="-12" y="-9"/>
      <point x="20" y="-13"/>
      <point x="56" y="-13" type="curve" smooth="yes"/>
      <point x="228" y="-13"/>
      <point x="304" y="82"/>
      <point x="371" y="380" type="curve" smooth="yes"/>
      <point x="402" y="517" type="line"/>
      <point x="562" y="517" type="line"/>
      <point x="465" y="32" type="line" smooth="yes"/>
      <point x="454" y="-21"/>
      <point x="397" y="-49"/>
      <point x="349" y="-24" type="curve"/>
    </contour>
  </outline>
</glyph>
<glyph name="We-cy" format="2">
  <advance width="1178"/>
  <unicode hex="051C"/>
  <outline>
    <contour>
      <point x="175" y="0" type="line"/>
      <point x="423" y="0" type="line"/>
      <point x="669" y="484" type="line"/>
      <point x="601" y="484" type="line"/>
      <point x="645" y="0" type="line"/>
      <point x="893" y="0" type="line"/>
      <point x="1257" y="700" type="line"/>
      <point x="1029" y="700" type="line"/>
      <point x="722" y="109" type="line"/>
      <point x="844" y="109" type="line"/>
      <point x="788" y="700" type="line"/>
      <point x="571" y="700" type="line"/>
      <point x="266" y="109" type="line"/>
      <point x="393" y="109" type="line"/>
      <point x="330" y="700" type="line"/>
      <point x="91" y="700" type="line"/>
    </contour>
  </outline>
</glyph>
<glyph name="shhadescender-cy" format="2">
  <advance width="749"/>
  <unicode hex="0527"/>
  <outline>
    <contour>
      <point x="454" y="-101" type="line"/>
      <point x="663" y="-101" type="line"/>
      <point x="718" y="177" type="line"/>
      <point x="411" y="177" type="line"/>
      <point x="376" y="0" type="line"/>
      <point x="585" y="0" type="line"/>
      <point x="484" y="48" type="line"/>
    </contour>
    <contour>
      <point x="473" y="557" type="curve" smooth="yes"/>
      <point x="398" y="557"/>
      <point x="315" y="520"/>
      <point x="263" y="436" type="curve"/>
      <point x="303" y="396" type="line"/>
      <point x="372" y="742" type="line"/>
      <point x="146" y="742" type="line"/>
      <point x="-2" y="0" type="line"/>
      <point x="224" y="0" type="line"/>
      <point x="277" y="263" type="line" smooth="yes"/>
      <point x="291" y="334"/>
      <point x="327" y="367"/>
      <point x="378" y="367" type="curve" smooth="yes"/>
      <point x="426" y="367"/>
      <point x="443" y="335"/>
      <point x="431" y="275" type="curve" smooth="yes"/>
      <point x="376" y="0" type="line"/>
      <point x="602" y="0" type="line"/>
      <point x="662" y="302" type="line" smooth="yes"/>
      <point x="696" y="472"/>
      <point x="603" y="557"/>
    </contour>
  </outline>
</glyph>
<glyph name="EnLeftHook-cy" format="2">
  <advance width="813"/>
  <unicode hex="0528"/>
  <outline>
    <contour>
      <point x="-173" y="-173" type="line"/>
      <point x="-18" y="-245"/>
      <point x="200" y="-203"/>
      <point x="242" y="11" type="curve" smooth="yes"/>
      <point x="291" y="252" type="line"/>
      <point x="515" y="252" type="line"/>
      <point x="464" y="0" type="line"/>
      <point x="696" y="0" type="line"/>
      <point x="836" y="700" type="line"/>
      <point x="604" y="700" type="line"/>
      <point x="551" y="435" type="line"/>
      <point x="327" y="435" type="line"/>
      <point x="380" y="700" type="line"/>
      <point x="148" y="700" type="line"/>
      <point x="15" y="32" type="line" smooth="yes"/>
      <point x="4" y="-21"/>
      <point x="-53" y="-49"/>
      <point x="-101" y="-24" type="curve"/>
    </contour>
  </outline>
</glyph>
<glyph name="enlefthook-cy" format="2">
  <advance width="712"/>
  <unicode hex="0529"/>
  <outline>
    <contour>
      <point x="489" y="547" type="line"/>
      <point x="451" y="360" type="line"/>
      <point x="296" y="360" type="line"/>
      <point x="334" y="547" type="line"/>
      <point x="108" y="547" type="line"/>
      <point x="5" y="30" type="line" smooth="yes"/>
      <point x="-4" y="-15"/>
      <point x="-27" y="-34"/>
      <point x="-54" y="-34" type="curve" smooth="yes"/>
      <point x="-72" y="-34"/>
      <point x="-89" y="-29"/>
      <point x="-103" y="-21" type="curve"/>
      <point x="-188" y="-177" type="line"/>
      <point x="-157" y="-195"/>
      <point x="-107" y="-204"/>
      <point x="-54" y="-204" type="curve" smooth="yes"/>
      <point x="97" y="-204"/>
      <point x="202" y="-113"/>
      <point x="230" y="28" type="curve" smooth="yes"/>
      <point x="261" y="183" type="line"/>
      <point x="416" y="183" type="line"/>
      <point x="379" y="0" type="line"/>
      <point x="604" y="0" type="line"/>
      <point x="714" y="547" type="line"/>
    </contour>
  </outline>
</glyph>
<glyph name="emdash" format="2">
  <advance width="1000"/>
  <unicode hex="2014"/>
  <outline>
    <contour>
      <point x="-10" y="224" type="line"/>
      <point x="990" y="224" type="line"/>
      <point x="1016" y="354" type="line"/>
      <point x="16" y="354" type="line"/>
    </contour>
  </outline>
</glyph>
<glyph name="cedi" format="2">
  <advance width="744"/>
  <unicode hex="20B5"/>
  <outline>
    <contour>
      <point x="273" y="-120" type="line"/>
      <point x="414" y="-120" type="line"/>
      <point x="602" y="820" type="line"/>
      <point x="461" y="820" type="line"/>
    </contour>
    <contour>
      <point x="400" y="-16" type="curve" smooth="yes"/>
      <point x="529" y="-16"/>
      <point x="633" y="19"/>
      <point x="718" y="123" type="curve"/>
      <point x="579" y="256" type="line"/>
      <point x="531" y="198"/>
      <point x="478" y="175"/>
      <point x="423" y="175" type="curve" smooth="yes"/>
      <point x="336" y="175"/>
      <point x="279" y="230"/>
      <point x="279" y="312" type="curve" smooth="yes"/>
      <point x="279" y="437"/>
      <point x="357" y="525"/>
      <point x="468" y="525" type="curve" smooth="yes"/>
      <point x="532" y="525"/>
      <point x="578" y="495"/>
      <point x="608" y="443" type="curve"/>
      <point x="778" y="576" type="line"/>
      <point x="727" y="666"/>
      <point x="617" y="716"/>
      <point x="483" y="716" type="curve" smooth="yes"/>
      <point x="224" y="716"/>
      <point x="41" y="543"/>
      <point x="41" y="297" type="curve" smooth="yes"/>
      <point x="41" y="111"/>
      <point x="183" y="-16"/>
    </contour>
  </outline>
</glyph>
<glyph name="infinity" format="2">
  <advance width="939"/>
  <unicode hex="221E"/>
  <outline>
    <contour>
      <point x="678" y="122" type="curve" smooth="yes"/>
      <point x="820" y="122"/>
      <point x="934" y="225"/>
      <point x="934" y="371" type="curve" smooth="yes"/>
      <point x="934" y="496"/>
      <point x="850" y="578"/>
      <point x="720" y="578" type="curve" smooth="yes"/>
      <point x="458" y="578"/>
      <point x="423" y="274"/>
      <point x="280" y="274" type="curve" smooth="yes"/>
      <point x="237" y="274"/>
      <point x="214" y="301"/>
      <point x="214" y="344" type="curve" smooth="yes"/>
      <point x="214" y="392"/>
      <point x="250" y="426"/>
      <point x="293" y="426" type="curve" smooth="yes"/>
      <point x="439" y="426"/>
      <point x="406" y="122"/>
    </contour>
    <contour>
      <point x="248" y="122" type="curve" smooth="yes"/>
      <point x="510" y="122"/>
      <point x="546" y="426"/>
      <point x="689" y="426" type="curve" smooth="yes"/>
      <point x="733" y="426"/>
      <point x="755" y="400"/>
      <point x="755" y="357" type="curve" smooth="yes"/>
      <point x="755" y="309"/>
      <point x="720" y="274"/>
      <point x="676" y="274" type="curve" smooth="yes"/>
      <point x="530" y="274"/>
      <point x="562" y="578"/>
      <point x="290" y="578" type="curve" smooth="yes"/>
      <point x="144" y="578"/>
      <point x="35" y="471"/>
      <point x="35" y="327" type="curve" smooth="yes"/>
      <point x="35" y="204"/>
      <point x="119" y="122"/>
    </contour>
  </outline>
</glyph>
<glyph name="leftanglebracket-math" format="2">
  <advance width="403"/>
  <unicode hex="27E8"/>
  <guideline x="-195" y="-194" angle="0"/>
  <guideline x="210" y="742" angle="0"/>
  <outline>
    <contour>
      <point x="90" y="-194" type="line"/>
      <point x="299" y="-194" type="line"/>
      <point x="231" y="274" type="line"/>
      <point x="486" y="742" type="line"/>
      <point x="277" y="742" type="line"/>
      <point x="11" y="274" type="line"/>
    </contour>
  </outline>
</glyph>
<glyph name="saltillo" format="2">
  <advance width="334"/>
  <unicode hex="A78C"/>
  <outline>
    <contour>
      <point x="59" y="296" type="line"/>
      <point x="253" y="296" type="line"/>
      <point x="364" y="701" type="line"/>
      <point x="140" y="701" type="line"/>
    </contour>
  </outline>
</glyph>
<glyph name="El-cy.ss01" format="2">
  <advance width="812"/>
  <anchor x="476" y="0" name="#exit"/>
  <anchor x="476" y="0" name="bottomleft"/>
  <outline>
    <contour>
      <point x="-2" y="183" type="line"/>
      <point x="-39" y="0" type="line"/>
      <point x="148" y="0" type="line"/>
      <point x="186" y="183" type="line"/>
    </contour>
    <contour>
      <point x="36" y="0" type="line"/>
      <point x="268" y="0" type="line"/>
      <point x="346" y="391" type="line" smooth="yes"/>
      <point x="365" y="486"/>
      <point x="408" y="525"/>
      <point x="471" y="525" type="curve" smooth="yes"/>
      <point x="539" y="525"/>
      <point x="571" y="480"/>
      <point x="552" y="381" type="curve" smooth="yes"/>
      <point x="476" y="0" type="line"/>
      <point x="712" y="0" type="line"/>
      <point x="785" y="365" type="line" smooth="yes"/>
      <point x="829" y="584"/>
      <point x="708" y="716"/>
      <point x="496" y="716" type="curve" smooth="yes"/>
      <point x="294" y="716"/>
      <point x="157" y="605"/>
      <point x="115" y="395" type="curve" smooth="yes"/>
    </contour>
  </outline>
</glyph>
<glyph name="F.ss01" format="2">
  <advance width="625"/>
  <outline>
    <contour>
      <point x="-4" y="0" type="line"/>
      <point x="232" y="0" type="line"/>
      <point x="315" y="415" type="line" smooth="yes"/>
      <point x="330" y="490"/>
      <point x="385" y="525"/>
      <point x="470" y="525" type="curve" smooth="yes"/>
      <point x="510" y="525"/>
      <point x="558" y="516"/>
      <point x="592" y="495" type="curve"/>
      <point x="693" y="669" type="line"/>
      <point x="641" y="699"/>
      <point x="554" y="716"/>
      <point x="481" y="716" type="curve" smooth="yes"/>
      <point x="249" y="716"/>
      <point x="118" y="611"/>
      <point x="78" y="410" type="curve" smooth="yes"/>
    </contour>
    <contour>
      <point x="185" y="224" type="line"/>
      <point x="524" y="224" type="line"/>
      <point x="560" y="402" type="line"/>
      <point x="221" y="402" type="line"/>
    </contour>
  </outline>
</glyph>
<glyph name="Ghestroke-cy.loclBSH" format="2">
  <advance width="614"/>
  <outline>
    <contour>
      <point x="158" y="253" type="line"/>
      <point x="539" y="253" type="line"/>
      <point x="565" y="383" type="line"/>
      <point x="184" y="383" type="line"/>
    </contour>
    <component base="Ge-cy"/>
  </outline>
</glyph>
<glyph name="Gstroke.ss01" format="2">
  <advance width="821"/>
  <outline>
    <contour>
      <point x="396.72" y="205.24" type="line"/>
      <point x="810.3199999999999" y="205.24" type="line"/>
      <point x="834.0799999999999" y="338.52" type="line"/>
      <point x="420.48" y="338.52" type="line"/>
    </contour>
    <component base="G.ss01"/>
  </outline>
</glyph>
<glyph name="Lje-cy.ss01" format="2">
  <advance width="1179"/>
  <outline>
    <contour>
      <point x="69" y="-16" type="curve" smooth="yes"/>
      <point x="289" y="-16"/>
      <point x="342" y="242"/>
      <point x="381" y="427" type="curve" smooth="yes"/>
      <point x="411" y="570" type="line"/>
      <point x="354" y="517" type="line"/>
      <point x="594" y="517" type="line"/>
      <point x="812" y="700" type="line"/>
      <point x="238" y="700" type="line"/>
      <point x="176" y="436" type="line" smooth="yes"/>
      <point x="143" y="297"/>
      <point x="104" y="184"/>
      <point x="18" y="182" type="curve" smooth="yes"/>
      <point x="18" y="182"/>
      <point x="9" y="182"/>
      <point x="0" y="184" type="curve"/>
      <point x="-34" y="-1" type="line"/>
      <point x="1" y="-10"/>
      <point x="35" y="-16"/>
    </contour>
    <contour>
      <point x="774" y="-16" type="curve" smooth="yes"/>
      <point x="1000" y="-16"/>
      <point x="1155" y="99"/>
      <point x="1155" y="281" type="curve" smooth="yes"/>
      <point x="1155" y="419"/>
      <point x="1067" y="497"/>
      <point x="909" y="497" type="curve" smooth="yes"/>
      <point x="856" y="497"/>
      <point x="796" y="488"/>
      <point x="730" y="470" type="curve"/>
      <point x="703" y="299" type="line"/>
      <point x="756" y="319"/>
      <point x="797" y="328"/>
      <point x="831" y="328" type="curve" smooth="yes"/>
      <point x="885" y="328"/>
      <point x="913" y="303"/>
      <point x="913" y="256" type="curve" smooth="yes"/>
      <point x="913" y="198"/>
      <point x="868" y="159"/>
      <point x="800" y="159" type="curve" smooth="yes"/>
      <point x="735" y="159"/>
      <point x="708" y="195"/>
      <point x="721" y="261" type="curve" smooth="yes"/>
      <point x="808" y="700" type="line"/>
      <point x="576" y="700" type="line"/>
      <point x="492" y="278" type="line" smooth="yes"/>
      <point x="455" y="93"/>
      <point x="553" y="-16"/>
    </contour>
  </outline>
</glyph>
<glyph name="Udieresis.alt" format="2">
  <advance width="784"/>
  <outline>
    <contour>
      <point x="355" y="-16" type="curve" smooth="yes"/>
      <point x="570" y="-16"/>
      <point x="697" y="95"/>
      <point x="739" y="305" type="curve" smooth="yes"/>
      <point x="818" y="700" type="line"/>
      <point x="586" y="700" type="line"/>
      <point x="510" y="319" type="line" smooth="yes"/>
      <point x="489" y="214"/>
      <point x="452" y="175"/>
      <point x="384" y="175" type="curve" smooth="yes"/>
      <point x="310" y="175"/>
      <point x="276" y="220"/>
      <point x="296" y="319" type="curve" smooth="yes"/>
      <point x="372" y="700" type="line"/>
      <point x="136" y="700" type="line"/>
      <point x="59" y="315" type="line" smooth="yes"/>
      <point x="19" y="116"/>
      <point x="137" y="-16"/>
    </contour>
    <contour>
      <point x="385" y="533" type="curve" smooth="yes"/>
      <point x="440" y="533"/>
      <point x="484" y="573"/>
      <point x="484" y="633" type="curve" smooth="yes"/>
      <point x="484" y="677"/>
      <point x="451" y="710"/>
      <point x="399" y="710" type="curve" smooth="yes"/>
      <point x="344" y="710"/>
      <point x="300" y="671"/>
      <point x="300" y="611" type="curve" smooth="yes"/>
      <point x="300" y="566"/>
      <point x="334" y="533"/>
    </contour>
    <contour>
      <point x="527" y="533" type="curve" smooth="yes"/>
      <point x="582" y="533"/>
      <point x="626" y="573"/>
      <point x="626" y="633" type="curve" smooth="yes"/>
      <point x="626" y="677"/>
      <point x="593" y="710"/>
      <point x="541" y="710" type="curve" smooth="yes"/>
      <point x="486" y="710"/>
      <point x="442" y="671"/>
      <point x="442" y="611" type="curve" smooth="yes"/>
      <point x="442" y="566"/>
      <point x="476" y="533"/>
    </contour>
  </outline>
</glyph>
<glyph name="adieresis.sc.alt" format="2">
  <advance width="702"/>
  <outline>
    <contour>
      <point x="-74" y="0" type="line"/>
      <point x="168" y="0" type="line"/>
      <point x="219" y="88" type="line"/>
      <point x="301" y="246" type="line"/>
      <point x="432" y="480" type="line"/>
      <point x="353" y="480" type="line"/>
      <point x="396" y="246" type="line"/>
      <point x="419" y="88" type="line"/>
      <point x="436" y="0" type="line"/>
      <point x="665" y="0" type="line"/>
      <point x="527" y="582" type="line"/>
      <point x="301" y="582" type="line"/>
    </contour>
    <contour>
      <point x="108" y="88" type="line"/>
      <point x="480" y="88" type="line"/>
      <point x="456" y="246" type="line"/>
      <point x="199" y="246" type="line"/>
    </contour>
    <contour>
      <point x="112" y="420" type="curve" smooth="yes"/>
      <point x="163" y="420"/>
      <point x="209" y="458"/>
      <point x="209" y="517" type="curve" smooth="yes"/>
      <point x="209" y="566"/>
      <point x="173" y="597"/>
      <point x="125" y="597" type="curve" smooth="yes"/>
      <point x="74" y="597"/>
      <point x="28" y="558"/>
      <point x="28" y="499" type="curve" smooth="yes"/>
      <point x="28" y="450"/>
      <point x="64" y="420"/>
    </contour>
    <contour>
      <point x="670" y="420" type="curve" smooth="yes"/>
      <point x="721" y="420"/>
      <point x="767" y="458"/>
      <point x="767" y="517" type="curve" smooth="yes"/>
      <point x="767" y="566"/>
      <point x="731" y="597"/>
      <point x="683" y="597" type="curve" smooth="yes"/>
      <point x="632" y="597"/>
      <point x="586" y="558"/>
      <point x="586" y="499" type="curve" smooth="yes"/>
      <point x="586" y="450"/>
      <point x="622" y="420"/>
    </contour>
  </outline>
</glyph>
<glyph name="ampersand.sc" format="2">
  <advance width="664"/>
  <outline>
    <contour>
      <point x="235" y="-15" type="curve" smooth="yes"/>
      <point x="426" y="-15"/>
      <point x="582" y="114"/>
      <point x="667" y="284" type="curve"/>
      <point x="501" y="335" type="line"/>
      <point x="446" y="217"/>
      <point x="349" y="140"/>
      <point x="274" y="140" type="curve" smooth="yes"/>
      <point x="228" y="140"/>
      <point x="211" y="160"/>
      <point x="211" y="182" type="curve" smooth="yes"/>
      <point x="211" y="221"/>
      <point x="264" y="243"/>
      <point x="312" y="255" type="curve" smooth="yes"/>
      <point x="436" y="286"/>
      <point x="544" y="349"/>
      <point x="544" y="455" type="curve" smooth="yes"/>
      <point x="544" y="546"/>
      <point x="461" y="593"/>
      <point x="351" y="593" type="curve" smooth="yes"/>
      <point x="227" y="593"/>
      <point x="114" y="525"/>
      <point x="114" y="405" type="curve" smooth="yes"/>
      <point x="114" y="361"/>
      <point x="131" y="320"/>
      <point x="167" y="286" type="curve" smooth="yes"/>
      <point x="475" y="-13" type="line"/>
      <point x="620" y="116" type="line"/>
      <point x="356" y="367" type="line" smooth="yes"/>
      <point x="321" y="400"/>
      <point x="308" y="412"/>
      <point x="308" y="429" type="curve" smooth="yes"/>
      <point x="308" y="449"/>
      <point x="322" y="461"/>
      <point x="342" y="461" type="curve" smooth="yes"/>
      <point x="356" y="461"/>
      <point x="369" y="454"/>
      <point x="369" y="439" type="curve" smooth="yes"/>
      <point x="369" y="420"/>
      <point x="350" y="399"/>
      <point x="245" y="368" type="curve" smooth="yes"/>
      <point x="118" y="330"/>
      <point x="-2" y="266"/>
      <point x="-2" y="146" type="curve" smooth="yes"/>
      <point x="-2" y="45"/>
      <point x="103" y="-15"/>
    </contour>
  </outline>
</glyph>
<glyph name="breveinvertedcomb.narrow" format="2">
  <guideline x="966" y="671" angle="90"/>
  <anchor x="355" y="547" name="_top"/>
  <anchor x="396" y="750" name="top"/>
  <outline>
    <contour>
      <point x="183" y="607" type="curve"/>
      <point x="316" y="607" type="line"/>
      <point x="322" y="648"/>
      <point x="342" y="670"/>
      <point x="377" y="670" type="curve" smooth="yes"/>
      <point x="412" y="670"/>
      <point x="430" y="644"/>
      <point x="424" y="607" type="curve"/>
      <point x="551" y="607" type="line"/>
      <point x="565" y="712"/>
      <point x="494" y="777"/>
      <point x="390" y="777" type="curve" smooth="yes"/>
      <point x="272" y="777"/>
      <point x="201" y="712"/>
    </contour>
  </outline>
</glyph>
<glyph name="che-cy.loclBGR" format="2">
  <advance width="662"/>
  <anchor x="319" y="0" name="bottomleft"/>
  <outline>
    <contour>
      <point x="374" y="208" type="curve"/>
      <point x="406" y="383" type="line"/>
      <point x="399" y="341"/>
      <point x="364" y="310"/>
      <point x="325" y="310" type="curve" smooth="yes"/>
      <point x="277" y="310"/>
      <point x="259" y="331"/>
      <point x="268" y="374" type="curve" smooth="yes"/>
      <point x="303" y="547" type="line"/>
      <point x="78" y="547" type="line"/>
      <point x="45" y="382" type="line" smooth="yes"/>
      <point x="14" y="230"/>
      <point x="79" y="150"/>
      <point x="236" y="150" type="curve" smooth="yes"/>
      <point x="302" y="150"/>
      <point x="350" y="170"/>
    </contour>
    <contour>
      <point x="329" y="0" type="line"/>
      <point x="554" y="0" type="line"/>
      <point x="664" y="547" type="line"/>
      <point x="439" y="547" type="line"/>
    </contour>
  </outline>
</glyph>
<glyph name="commaaccentcomb.alt" format="2">
  <anchor x="355" y="547" name="_top"/>
  <outline>
    <contour>
      <point x="482" y="817" type="line"/>
      <point x="383" y="817" type="line"/>
      <point x="331" y="752" type="line" smooth="yes"/>
      <point x="297" y="709"/>
      <point x="289" y="689"/>
      <point x="289" y="663" type="curve" smooth="yes"/>
      <point x="289" y="626"/>
      <point x="316" y="597"/>
      <point x="374" y="597" type="curve" smooth="yes"/>
      <point x="439" y="597"/>
      <point x="472" y="634"/>
      <point x="472" y="684" type="curve" smooth="yes"/>
      <point x="472" y="720"/>
      <point x="444" y="745"/>
      <point x="390" y="745" type="curve"/>
      <point x="405" y="672" type="line"/>
    </contour>
  </outline>
</glyph>
<glyph name="d.sc" format="2">
  <advance width="718"/>
  <anchor x="260" y="0" name="bottom"/>
  <anchor x="194" y="295" name="center"/>
  <anchor x="375" y="582" name="top"/>
  <outline>
    <contour>
      <point x="-3" y="0" type="line"/>
      <point x="328" y="0" type="line"/>
      <point x="542" y="0"/>
      <point x="699" y="127"/>
      <point x="699" y="333" type="curve" smooth="yes"/>
      <point x="699" y="488"/>
      <point x="580" y="582"/>
      <point x="392" y="582" type="curve" smooth="yes"/>
      <point x="114" y="582" type="line"/>
    </contour>
    <contour>
      <point x="262" y="172" type="line"/>
      <point x="310" y="410" type="line"/>
      <point x="365" y="410" type="line" smooth="yes"/>
      <point x="430" y="410"/>
      <point x="467" y="379"/>
      <point x="467" y="319" type="curve" smooth="yes"/>
      <point x="467" y="238"/>
      <point x="423" y="172"/>
      <point x="335" y="172" type="curve" smooth="yes"/>
    </contour>
  </outline>
</glyph>
<glyph name="dotaccentcomb.loclVIET" format="2">
  <anchor x="355" y="547" name="_top"/>
  <anchor x="394" y="740" name="top"/>
  <outline>
    <contour>
      <point x="376" y="599" type="curve" smooth="yes"/>
      <point x="427" y="599"/>
      <point x="473" y="637"/>
      <point x="473" y="696" type="curve" smooth="yes"/>
      <point x="473" y="745"/>
      <point x="437" y="776"/>
      <point x="389" y="776" type="curve" smooth="yes"/>
      <point x="338" y="776"/>
      <point x="292" y="737"/>
      <point x="292" y="678" type="curve" smooth="yes"/>
      <point x="292" y="629"/>
      <point x="328" y="599"/>
    </contour>
  </outline>
</glyph>
<glyph name="five.dnom" format="2">
  <advance width="430"/>
  <outline>
    <contour>
      <point x="146" y="-10" type="curve" smooth="yes"/>
      <point x="289" y="-10"/>
      <point x="378" y="53"/>
      <point x="378" y="151" type="curve" smooth="yes"/>
      <point x="378" y="219"/>
      <point x="328" y="271"/>
      <point x="204" y="271" type="curve" smooth="yes"/>
      <point x="100" y="271" type="line"/>
      <point x="172" y="208" type="line"/>
      <point x="216" y="367" type="line"/>
      <point x="122" y="304" type="line"/>
      <point x="379" y="304" type="line"/>
      <point x="401" y="415" type="line"/>
      <point x="91" y="415" type="line"/>
      <point x="15" y="160" type="line"/>
      <point x="167" y="160" type="line" smooth="yes"/>
      <point x="207" y="160"/>
      <point x="219" y="151"/>
      <point x="219" y="137" type="curve" smooth="yes"/>
      <point x="219" y="118"/>
      <point x="198" y="106"/>
      <point x="155" y="106" type="curve" smooth="yes"/>
      <point x="115" y="106"/>
      <point x="70" y="115"/>
      <point x="28" y="135" type="curve"/>
      <point x="-37" y="26" type="line"/>
      <point x="10" y="4"/>
      <point x="72" y="-10"/>
    </contour>
  </outline>
</glyph>
<glyph name="five.osf" format="2">
  <advance width="619"/>
  <outline>
    <contour>
      <point x="218" y="-116" type="curve" smooth="yes"/>
      <point x="420" y="-116"/>
      <point x="573" y="-15"/>
      <point x="573" y="156" type="curve" smooth="yes"/>
      <point x="573" y="287"/>
      <point x="478" y="353"/>
      <point x="312" y="353" type="curve" smooth="yes"/>
      <point x="168" y="353" type="line"/>
      <point x="266" y="252" type="line"/>
      <point x="341" y="523" type="line"/>
      <point x="202" y="422" type="line"/>
      <point x="584" y="422" type="line"/>
      <point x="620" y="600" type="line"/>
      <point x="155" y="600" type="line"/>
      <point x="35" y="175" type="line"/>
      <point x="248" y="175" type="line" smooth="yes"/>
      <point x="313" y="175"/>
      <point x="335" y="158"/>
      <point x="335" y="129" type="curve" smooth="yes"/>
      <point x="335" y="91"/>
      <point x="299" y="70"/>
      <point x="234" y="70" type="curve" smooth="yes"/>
      <point x="176" y="70"/>
      <point x="110" y="86"/>
      <point x="55" y="121" type="curve"/>
      <point x="-52" y="-43" type="line"/>
      <point x="22" y="-93"/>
      <point x="118" y="-116"/>
    </contour>
  </outline>
</glyph>
<glyph name="four.osf" format="2">
  <advance width="712"/>
  <outline>
    <contour>
      <point x="-28" y="20" type="line"/>
      <point x="657" y="20" type="line"/>
      <point x="694" y="203" type="line"/>
      <point x="152" y="203" type="line"/>
      <point x="263" y="170" type="line"/>
      <point x="627" y="600" type="line"/>
      <point x="377" y="600" type="line"/>
      <point x="2" y="170" type="line"/>
    </contour>
    <contour>
      <point x="311" y="-100" type="line"/>
      <point x="540" y="-100" type="line"/>
      <point x="622" y="310" type="line"/>
      <point x="400" y="310" type="line"/>
      <point x="379" y="203" type="line"/>
      <point x="335" y="20" type="line"/>
    </contour>
  </outline>
</glyph>
<glyph name="gstroke.sc" format="2">
  <advance width="696"/>
  <outline>
    <contour>
      <point x="312.0656" y="192.63400000000001" type="line"/>
      <point x="672.9552" y="192.63400000000001" type="line"/>
      <point x="691.5056" y="275.464" type="line"/>
      <point x="330.616" y="275.464" type="line"/>
    </contour>
    <component base="g.sc"/>
  </outline>
</glyph>
<glyph name="gstroke.sc.ss01" format="2">
  <advance width="697"/>
  <outline>
    <contour>
      <point x="306.0656" y="192.634" type="line"/>
      <point x="666.9552" y="192.634" type="line"/>
      <point x="685.5056" y="275.464" type="line"/>
      <point x="324.616" y="275.464" type="line"/>
    </contour>
    <component base="g.sc.ss01"/>
  </outline>
</glyph>
<glyph name="hookabovecomb.loclVIET" format="2">
  <anchor x="355" y="547" name="_top"/>
  <anchor x="398" y="760" name="top"/>
  <outline>
    <contour>
      <point x="405" y="597" type="line"/>
      <point x="453" y="615"/>
      <point x="499" y="651"/>
      <point x="499" y="703" type="curve" smooth="yes"/>
      <point x="499" y="750"/>
      <point x="460" y="778"/>
      <point x="400" y="778" type="curve" smooth="yes"/>
      <point x="364" y="778"/>
      <point x="331" y="770"/>
      <point x="301" y="753" type="curve"/>
      <point x="326" y="692" type="line"/>
      <point x="342" y="700"/>
      <point x="358" y="704"/>
      <point x="374" y="704" type="curve" smooth="yes"/>
      <point x="389" y="704"/>
      <point x="399" y="696"/>
      <point x="399" y="684" type="curve" smooth="yes"/>
      <point x="399" y="673"/>
      <point x="394" y="658"/>
      <point x="359" y="642" type="curve"/>
    </contour>
  </outline>
</glyph>
<glyph name="iacute_j.loclNLD.sc" format="2">
  <advance width="642"/>
  <outline>
    <contour>
      <point x="250" y="-15" type="curve" smooth="yes"/>
      <point x="435" y="-15"/>
      <point x="554" y="72"/>
      <point x="590" y="255" type="curve" smooth="yes"/>
      <point x="655" y="582" type="line"/>
      <point x="425" y="582" type="line"/>
      <point x="361" y="262" type="line" smooth="yes"/>
      <point x="346" y="189"/>
      <point x="320" y="162"/>
      <point x="260" y="162" type="curve" smooth="yes"/>
      <point x="205" y="162"/>
      <point x="146" y="180"/>
      <point x="89" y="218" type="curve"/>
      <point x="-21" y="58" type="line"/>
      <point x="45" y="13"/>
      <point x="131" y="-15"/>
    </contour>
    <contour>
      <point x="42" y="285" type="line"/>
      <point x="272" y="285" type="line"/>
      <point x="331" y="582" type="line"/>
      <point x="101" y="582" type="line"/>
    </contour>
    <contour>
      <point x="116" y="642" type="line"/>
      <point x="272" y="642" type="line"/>
      <point x="487" y="802" type="line"/>
      <point x="266" y="802" type="line"/>
    </contour>
    <contour>
      <point x="430" y="642" type="line"/>
      <point x="586" y="642" type="line"/>
      <point x="801" y="802" type="line"/>
      <point x="580" y="802" type="line"/>
    </contour>
  </outline>
</glyph>
<glyph name="ij.sc.ss01" format="2">
  <advance width="642"/>
  <anchor x="212" y="582" name="top"/>
  <outline>
    <contour>
      <point x="234" y="-98" type="curve" smooth="yes"/>
      <point x="419" y="-98"/>
      <point x="537" y="-13"/>
      <point x="574" y="172" type="curve" smooth="yes"/>
      <point x="656" y="582" type="line"/>
      <point x="426" y="582" type="line"/>
      <point x="345" y="178" type="line" smooth="yes"/>
      <point x="330" y="103"/>
      <point x="304" y="79"/>
      <point x="244" y="79" type="curve" smooth="yes"/>
      <point x="189" y="79"/>
      <point x="130" y="97"/>
      <point x="73" y="134" type="curve"/>
      <point x="-37" y="-25" type="line"/>
      <point x="29" y="-70"/>
      <point x="115" y="-98"/>
    </contour>
    <contour>
      <point x="25" y="202" type="line"/>
      <point x="255" y="202" type="line"/>
      <point x="331" y="582" type="line"/>
      <point x="101" y="582" type="line"/>
    </contour>
  </outline>
</glyph>
<glyph name="iu-cy.loclBGR" format="2">
  <advance width="939"/>
  <outline>
    <contour>
      <point x="-2" y="0" type="line"/>
      <point x="223" y="0" type="line"/>
      <point x="260" y="184" type="line"/>
      <point x="416" y="184" type="line"/>
      <point x="453" y="371" type="line"/>
      <point x="297" y="371" type="line"/>
      <point x="371" y="742" type="line"/>
      <point x="146" y="742" type="line"/>
    </contour>
    <contour>
      <point x="588" y="-10" type="curve" smooth="yes"/>
      <point x="782" y="-10"/>
      <point x="921" y="125"/>
      <point x="921" y="306" type="curve" smooth="yes"/>
      <point x="921" y="458"/>
      <point x="809" y="557"/>
      <point x="633" y="557" type="curve" smooth="yes"/>
      <point x="438" y="557"/>
      <point x="299" y="422"/>
      <point x="299" y="241" type="curve" smooth="yes"/>
      <point x="299" y="89"/>
      <point x="411" y="-10"/>
    </contour>
    <contour>
      <point x="602" y="168" type="curve" smooth="yes"/>
      <point x="555" y="168"/>
      <point x="528" y="203"/>
      <point x="528" y="253" type="curve" smooth="yes"/>
      <point x="528" y="329"/>
      <point x="565" y="379"/>
      <point x="619" y="379" type="curve" smooth="yes"/>
      <point x="665" y="379"/>
      <point x="692" y="344"/>
      <point x="692" y="294" type="curve" smooth="yes"/>
      <point x="692" y="218"/>
      <point x="656" y="168"/>
    </contour>
  </outline>
</glyph>
<glyph name="j.sc" format="2">
  <advance width="517"/>
  <anchor x="318" y="582" name="top"/>
  <outline>
    <contour>
      <point x="167" y="-15" type="curve" smooth="yes"/>
      <point x="328" y="-15"/>
      <point x="424" y="49"/>
      <point x="459" y="225" type="curve" smooth="yes"/>
      <point x="530" y="582" type="line"/>
      <point x="105" y="582" type="line"/>
      <point x="72" y="414" type="line"/>
      <point x="270" y="414" type="line"/>
      <point x="229" y="211" type="line" smooth="yes"/>
      <point x="223" y="180"/>
      <point x="202" y="159"/>
      <point x="171" y="159" type="curve" smooth="yes"/>
      <point x="139" y="159"/>
      <point x="113" y="176"/>
      <point x="86" y="211" type="curve"/>
      <point x="-60" y="76" type="line"/>
      <point x="-12" y="15"/>
      <point x="62" y="-15"/>
    </contour>
  </outline>
</glyph>
<glyph name="nine.tf" format="2">
  <advance width="700"/>
  <outline>
    <contour>
      <point x="378" y="716" type="curve" smooth="yes"/>
      <point x="194" y="716"/>
      <point x="60" y="612"/>
      <point x="60" y="449" type="curve" smooth="yes"/>
      <point x="60" y="317"/>
      <point x="173" y="247"/>
      <point x="291" y="247" type="curve" smooth="yes"/>
      <point x="392" y="247"/>
      <point x="455" y="285"/>
      <point x="500" y="363" type="curve"/>
      <point x="451" y="392" type="line"/>
      <point x="450" y="372"/>
      <point x="449" y="353"/>
      <point x="445" y="333" type="curve" smooth="yes"/>
      <point x="425" y="233"/>
      <point x="354" y="167"/>
      <point x="241" y="167" type="curve" smooth="yes"/>
      <point x="182" y="167"/>
      <point x="141" y="176"/>
      <point x="104" y="201" type="curve"/>
      <point x="-3" y="39" type="line"/>
      <point x="45" y="4"/>
      <point x="130" y="-16"/>
      <point x="226" y="-16" type="curve" smooth="yes"/>
      <point x="556" y="-16"/>
      <point x="696" y="227"/>
      <point x="696" y="440" type="curve" smooth="yes"/>
      <point x="696" y="613"/>
      <point x="581" y="716"/>
    </contour>
    <contour>
      <point x="381" y="555" type="curve" smooth="yes"/>
      <point x="431" y="555"/>
      <point x="463" y="528"/>
      <point x="463" y="488" type="curve" smooth="yes"/>
      <point x="463" y="439"/>
      <point x="422" y="408"/>
      <point x="372" y="408" type="curve" smooth="yes"/>
      <point x="321" y="408"/>
      <point x="291" y="432"/>
      <point x="291" y="477" type="curve" smooth="yes"/>
      <point x="291" y="526"/>
      <point x="333" y="555"/>
    </contour>
  </outline>
</glyph>
<glyph name="oe.sc" format="2">
  <advance width="984"/>
  <anchor x="507" y="0" name="bottom"/>
  <anchor x="623" y="582" name="top"/>
  <outline>
    <contour>
      <point x="333" y="0" type="curve" smooth="yes"/>
      <point x="451" y="0" type="line"/>
      <point x="487" y="171" type="line"/>
      <point x="359" y="171" type="line" smooth="yes"/>
      <point x="294" y="171"/>
      <point x="257" y="203"/>
      <point x="257" y="262" type="curve" smooth="yes"/>
      <point x="257" y="344"/>
      <point x="301" y="410"/>
      <point x="399" y="410" type="curve" smooth="yes"/>
      <point x="534" y="410" type="line"/>
      <point x="570" y="582" type="line"/>
      <point x="406" y="582" type="line" smooth="yes"/>
      <point x="182" y="582"/>
      <point x="25" y="455"/>
      <point x="25" y="249" type="curve" smooth="yes"/>
      <point x="25" y="94"/>
      <point x="144" y="0"/>
    </contour>
    <contour>
      <point x="394" y="0" type="line"/>
      <point x="902" y="0" type="line"/>
      <point x="935" y="165" type="line"/>
      <point x="653" y="165" type="line"/>
      <point x="703" y="417" type="line"/>
      <point x="974" y="417" type="line"/>
      <point x="1007" y="582" type="line"/>
      <point x="510" y="582" type="line"/>
    </contour>
    <contour>
      <point x="648" y="218" type="line"/>
      <point x="901" y="218" type="line"/>
      <point x="931" y="372" type="line"/>
      <point x="678" y="372" type="line"/>
    </contour>
  </outline>
</glyph>
<glyph name="periodcentered.loclCAT.case" format="2">
  <advance width="352"/>
  <anchor x="237" y="435" name="_dot"/>
  <outline>
    <contour>
      <point x="230" y="321" type="curve" smooth="yes"/>
      <point x="296" y="321"/>
      <point x="352" y="370"/>
      <point x="352" y="444" type="curve" smooth="yes"/>
      <point x="352" y="507"/>
      <point x="309" y="549"/>
      <point x="246" y="549" type="curve" smooth="yes"/>
      <point x="178" y="549"/>
      <point x="123" y="500"/>
      <point x="123" y="426" type="curve" smooth="yes"/>
      <point x="123" y="365"/>
      <point x="167" y="321"/>
    </contour>
  </outline>
</glyph>
<glyph name="periodcentered.loclCAT" format="2">
  <advance width="225"/>
  <anchor x="136" y="295" name="_dot"/>
  <outline>
    <contour>
      <point x="130" y="192" type="curve" smooth="yes"/>
      <point x="194" y="192"/>
      <point x="239" y="239"/>
      <point x="239" y="303" type="curve" smooth="yes"/>
      <point x="239" y="360"/>
      <point x="199" y="397"/>
      <point x="142" y="397" type="curve" smooth="yes"/>
      <point x="78" y="397"/>
      <point x="34" y="350"/>
      <point x="34" y="287" type="curve" smooth="yes"/>
      <point x="34" y="229"/>
      <point x="75" y="192"/>
    </contour>
  </outline>
</glyph>
<glyph name="periodcentered.loclCAT.sc" format="2">
  <advance width="225"/>
  <anchor x="133" y="374" name="_center"/>
  <anchor x="153" y="473" name="top"/>
  <outline>
    <contour>
      <point x="128" y="270" type="curve" smooth="yes"/>
      <point x="200" y="270"/>
      <point x="250" y="323"/>
      <point x="250" y="394" type="curve" smooth="yes"/>
      <point x="250" y="457"/>
      <point x="205" y="498"/>
      <point x="141" y="498" type="curve" smooth="yes"/>
      <point x="69" y="498"/>
      <point x="20" y="446"/>
      <point x="20" y="376" type="curve" smooth="yes"/>
      <point x="20" y="311"/>
      <point x="66" y="270"/>
    </contour>
  </outline>
</glyph>
<glyph name="q.sc" format="2">
  <advance width="727"/>
  <anchor x="426" y="582" name="top"/>
  <outline>
    <contour>
      <point x="331" y="-15" type="curve" smooth="yes"/>
      <point x="549" y="-15"/>
      <point x="708" y="125"/>
      <point x="708" y="333" type="curve" smooth="yes"/>
      <point x="708" y="488"/>
      <point x="588" y="597"/>
      <point x="402" y="597" type="curve" smooth="yes"/>
      <point x="185" y="597"/>
      <point x="25" y="457"/>
      <point x="25" y="249" type="curve" smooth="yes"/>
      <point x="25" y="94"/>
      <point x="145" y="-15"/>
    </contour>
    <contour>
      <point x="488" y="-154" type="curve" smooth="yes"/>
      <point x="563" y="-154"/>
      <point x="629" y="-135"/>
      <point x="674" y="-96" type="curve"/>
      <point x="592" y="33" type="line"/>
      <point x="566" y="13"/>
      <point x="535" y="1"/>
      <point x="510" y="1" type="curve" smooth="yes"/>
      <point x="475" y="1"/>
      <point x="459" y="14"/>
      <point x="448" y="75" type="curve"/>
      <point x="200" y="28" type="line"/>
      <point x="256" y="-96"/>
      <point x="350" y="-154"/>
    </contour>
    <contour>
      <point x="351" y="165" type="curve" smooth="yes"/>
      <point x="294" y="165"/>
      <point x="257" y="204"/>
      <point x="257" y="262" type="curve" smooth="yes"/>
      <point x="257" y="345"/>
      <point x="302" y="417"/>
      <point x="383" y="417" type="curve" smooth="yes"/>
      <point x="440" y="417"/>
      <point x="476" y="377"/>
      <point x="476" y="319" type="curve" smooth="yes"/>
      <point x="476" y="237"/>
      <point x="432" y="165"/>
    </contour>
  </outline>
</glyph>
<glyph name="q.sc.ss01.BRACKET.170" format="2">
  <advance width="727"/>
  <outline>
    <contour>
      <point x="170" y="-112" type="line"/>
      <point x="400" y="-112" type="line"/>
      <point x="428" y="24" type="line"/>
      <point x="198" y="24" type="line"/>
    </contour>
    <contour>
      <point x="331" y="-15" type="curve" smooth="yes"/>
      <point x="549" y="-15"/>
      <point x="708" y="125"/>
      <point x="708" y="333" type="curve" smooth="yes"/>
      <point x="708" y="488"/>
      <point x="588" y="597"/>
      <point x="402" y="597" type="curve" smooth="yes"/>
      <point x="185" y="597"/>
      <point x="25" y="457"/>
      <point x="25" y="249" type="curve" smooth="yes"/>
      <point x="25" y="94"/>
      <point x="145" y="-15"/>
    </contour>
    <contour>
      <point x="351" y="165" type="curve" smooth="yes"/>
      <point x="294" y="165"/>
      <point x="257" y="204"/>
      <point x="257" y="262" type="curve" smooth="yes"/>
      <point x="257" y="345"/>
      <point x="302" y="417"/>
      <point x="383" y="417" type="curve" smooth="yes"/>
      <point x="440" y="417"/>
      <point x="476" y="377"/>
      <point x="476" y="319" type="curve" smooth="yes"/>
      <point x="476" y="237"/>
      <point x="432" y="165"/>
    </contour>
  </outline>
</glyph>
<glyph name="quoteleft.sc" format="2">
  <advance width="304"/>
  <outline>
    <contour>
      <point x="317" y="582" type="line"/>
      <point x="177" y="582" type="line"/>
      <point x="81" y="445" type="line" smooth="yes"/>
      <point x="45" y="393"/>
      <point x="33" y="366"/>
      <point x="33" y="334" type="curve" smooth="yes"/>
      <point x="33" y="268"/>
      <point x="82" y="220"/>
      <point x="156" y="220" type="curve" smooth="yes"/>
      <point x="235" y="220"/>
      <point x="298" y="275"/>
      <point x="298" y="353" type="curve" smooth="yes"/>
      <point x="298" y="414"/>
      <point x="247" y="463"/>
      <point x="174" y="463" type="curve"/>
      <point x="198" y="337" type="line"/>
    </contour>
  </outline>
</glyph>
<glyph name="quotesinglbase.sc" format="2">
  <advance width="304"/>
  <outline>
    <contour>
      <point x="-31" y="-124" type="line"/>
      <point x="109" y="-124" type="line"/>
      <point x="205" y="13" type="line" smooth="yes"/>
      <point x="241" y="65"/>
      <point x="253" y="92"/>
      <point x="253" y="124" type="curve" smooth="yes"/>
      <point x="253" y="190"/>
      <point x="204" y="238"/>
      <point x="130" y="238" type="curve" smooth="yes"/>
      <point x="51" y="238"/>
      <point x="-12" y="183"/>
      <point x="-12" y="105" type="curve" smooth="yes"/>
      <point x="-12" y="44"/>
      <point x="39" y="-5"/>
      <point x="112" y="-5" type="curve"/>
      <point x="88" y="121" type="line"/>
    </contour>
  </outline>
</glyph>
<glyph name="schwa.sc" format="2">
  <advance width="693"/>
  <anchor x="292" y="0" name="bottom"/>
  <anchor x="407" y="582" name="top"/>
  <outline>
    <contour>
      <point x="328" y="-15" type="curve" smooth="yes"/>
      <point x="518" y="-15"/>
      <point x="672" y="108"/>
      <point x="672" y="323" type="curve" smooth="yes"/>
      <point x="672" y="488"/>
      <point x="545" y="597"/>
      <point x="359" y="597" type="curve" smooth="yes"/>
      <point x="258" y="597"/>
      <point x="159" y="565"/>
      <point x="81" y="500" type="curve"/>
      <point x="186" y="356" type="line"/>
      <point x="235" y="397"/>
      <point x="288" y="417"/>
      <point x="343" y="417" type="curve" smooth="yes"/>
      <point x="403" y="417"/>
      <point x="444" y="381"/>
      <point x="444" y="321" type="curve" smooth="yes"/>
      <point x="444" y="216"/>
      <point x="410" y="148"/>
      <point x="334" y="148" type="curve" smooth="yes"/>
      <point x="268" y="148"/>
      <point x="248" y="188"/>
      <point x="248" y="222" type="curve" smooth="yes"/>
      <point x="248" y="234"/>
      <point x="248" y="244"/>
      <point x="251" y="255" type="curve"/>
      <point x="169" y="214" type="line"/>
      <point x="452" y="214" type="line"/>
      <point x="477" y="335" type="line"/>
      <point x="38" y="335" type="line"/>
      <point x="28" y="298"/>
      <point x="24" y="263"/>
      <point x="24" y="237" type="curve" smooth="yes"/>
      <point x="24" y="90"/>
      <point x="147" y="-15"/>
    </contour>
  </outline>
</glyph>
<glyph name="slashlongcomb.case" format="2">
  <anchor x="416" y="350" name="_center"/>
  <outline>
    <contour>
      <point x="-31" y="-70" type="line"/>
      <point x="105" y="-70" type="line"/>
      <point x="863" y="770" type="line"/>
      <point x="727" y="770" type="line"/>
    </contour>
  </outline>
</glyph>
<glyph name="t.sc" format="2">
  <advance width="568"/>
  <anchor x="230" y="0" name="bottom"/>
  <anchor x="281" y="257" name="center"/>
  <anchor x="346" y="582" name="top"/>
  <outline>
    <contour>
      <point x="115" y="0" type="line"/>
      <point x="345" y="0" type="line"/>
      <point x="427" y="412" type="line"/>
      <point x="593" y="412" type="line"/>
      <point x="627" y="582" type="line"/>
      <point x="65" y="582" type="line"/>
      <point x="31" y="412" type="line"/>
      <point x="197" y="412" type="line"/>
    </contour>
  </outline>
</glyph>
<glyph name="te-cy.loclSRB" format="2">
  <advance width="1035"/>
  <anchor x="927" y="0" name="bottomright"/>
  <outline>
    <contour>
      <point x="216" y="-10" type="curve" smooth="yes"/>
      <point x="317" y="-10"/>
      <point x="399" y="43"/>
      <point x="445" y="132" type="curve"/>
      <point x="386" y="151" type="line"/>
      <point x="397" y="42"/>
      <point x="479" y="-10"/>
      <point x="569" y="-10" type="curve" smooth="yes"/>
      <point x="644" y="-10"/>
      <point x="721" y="28"/>
      <point x="770" y="111" type="curve"/>
      <point x="737" y="115" type="line"/>
      <point x="714" y="0" type="line"/>
      <point x="927" y="0" type="line"/>
      <point x="1036" y="547" type="line"/>
      <point x="810" y="547" type="line"/>
      <point x="757" y="280" type="line" smooth="yes"/>
      <point x="742" y="207"/>
      <point x="710" y="180"/>
      <point x="668" y="180" type="curve" smooth="yes"/>
      <point x="632" y="180"/>
      <point x="610" y="209"/>
      <point x="623" y="274" type="curve" smooth="yes"/>
      <point x="678" y="547" type="line"/>
      <point x="452" y="547" type="line"/>
      <point x="398" y="276" type="line" smooth="yes"/>
      <point x="384" y="206"/>
      <point x="351" y="180"/>
      <point x="310" y="180" type="curve" smooth="yes"/>
      <point x="274" y="180"/>
      <point x="252" y="209"/>
      <point x="265" y="274" type="curve" smooth="yes"/>
      <point x="320" y="547" type="line"/>
      <point x="94" y="547" type="line"/>
      <point x="34" y="245" type="line" smooth="yes"/>
      <point x="0" y="75"/>
      <point x="91" y="-10"/>
    </contour>
    <contour>
      <point x="166" y="628" type="line"/>
      <point x="1006" y="628" type="line"/>
      <point x="1054" y="746" type="line"/>
      <point x="214" y="746" type="line"/>
    </contour>
  </outline>
</glyph>
<glyph name="three.osf" format="2">
  <advance width="614"/>
  <outline>
    <contour>
      <point x="206" y="-116" type="curve" smooth="yes"/>
      <point x="408" y="-116"/>
      <point x="561" y="-5"/>
      <point x="561" y="146" type="curve" smooth="yes"/>
      <point x="561" y="259"/>
      <point x="467" y="333"/>
      <point x="322" y="333" type="curve" smooth="yes"/>
      <point x="270" y="333" type="line"/>
      <point x="375" y="271" type="line"/>
      <point x="588" y="455" type="line"/>
      <point x="617" y="600" type="line"/>
      <point x="95" y="600" type="line"/>
      <point x="59" y="422" type="line"/>
      <point x="408" y="422" type="line"/>
      <point x="398" y="501" type="line"/>
      <point x="185" y="317" type="line"/>
      <point x="156" y="172" type="line"/>
      <point x="253" y="172" type="line" smooth="yes"/>
      <point x="301" y="172"/>
      <point x="323" y="158"/>
      <point x="323" y="130" type="curve" smooth="yes"/>
      <point x="323" y="91"/>
      <point x="287" y="70"/>
      <point x="222" y="70" type="curve" smooth="yes"/>
      <point x="164" y="70"/>
      <point x="98" y="86"/>
      <point x="43" y="121" type="curve"/>
      <point x="-64" y="-43" type="line"/>
      <point x="10" y="-93"/>
      <point x="106" y="-116"/>
    </contour>
  </outline>
</glyph>
<glyph name="two.osf" format="2">
  <advance width="608"/>
  <outline>
    <contour>
      <point x="-26" y="0" type="line"/>
      <point x="535" y="0" type="line"/>
      <point x="570" y="175" type="line"/>
      <point x="204" y="175" type="line"/>
      <point x="235" y="77" type="line"/>
      <point x="437" y="213" type="line" smooth="yes"/>
      <point x="564" y="298"/>
      <point x="602" y="354"/>
      <point x="602" y="438" type="curve" smooth="yes"/>
      <point x="602" y="547"/>
      <point x="498" y="616"/>
      <point x="349" y="616" type="curve" smooth="yes"/>
      <point x="198" y="616"/>
      <point x="84" y="550"/>
      <point x="24" y="454" type="curve"/>
      <point x="182" y="365" type="line"/>
      <point x="208" y="408"/>
      <point x="252" y="434"/>
      <point x="306" y="434" type="curve" smooth="yes"/>
      <point x="343" y="434"/>
      <point x="361" y="420"/>
      <point x="361" y="398" type="curve" smooth="yes"/>
      <point x="361" y="375"/>
      <point x="345" y="354"/>
      <point x="292" y="319" type="curve" smooth="yes"/>
      <point x="-1" y="125" type="line"/>
    </contour>
  </outline>
</glyph>
<glyph name="two.tf" format="2">
  <advance width="700"/>
  <outline>
    <contour>
      <point x="16" y="0" type="line"/>
      <point x="581" y="0" type="line"/>
      <point x="618" y="183" type="line"/>
      <point x="251" y="183" type="line"/>
      <point x="279" y="101" type="line"/>
      <point x="495" y="265" type="line" smooth="yes"/>
      <point x="625" y="363"/>
      <point x="667" y="429"/>
      <point x="667" y="516" type="curve" smooth="yes"/>
      <point x="667" y="631"/>
      <point x="552" y="716"/>
      <point x="401" y="716" type="curve" smooth="yes"/>
      <point x="262" y="716"/>
      <point x="137" y="652"/>
      <point x="88" y="557" type="curve"/>
      <point x="237" y="463" type="line"/>
      <point x="266" y="507"/>
      <point x="306" y="530"/>
      <point x="355" y="530" type="curve" smooth="yes"/>
      <point x="399" y="530"/>
      <point x="424" y="510"/>
      <point x="424" y="479" type="curve" smooth="yes"/>
      <point x="424" y="446"/>
      <point x="407" y="420"/>
      <point x="341" y="370" type="curve" smooth="yes"/>
      <point x="45" y="145" type="line"/>
    </contour>
  </outline>
</glyph>
<glyph name="two.tosf" format="2">
  <advance width="700"/>
  <outline>
    <contour>
      <point x="17" y="0" type="line"/>
      <point x="593" y="0" type="line"/>
      <point x="628" y="175" type="line"/>
      <point x="247" y="175" type="line"/>
      <point x="278" y="77" type="line"/>
      <point x="498" y="223" type="line" smooth="yes"/>
      <point x="612" y="299"/>
      <point x="651" y="354"/>
      <point x="651" y="438" type="curve" smooth="yes"/>
      <point x="651" y="547"/>
      <point x="547" y="616"/>
      <point x="393" y="616" type="curve" smooth="yes"/>
      <point x="240" y="616"/>
      <point x="126" y="550"/>
      <point x="67" y="454" type="curve"/>
      <point x="223" y="367" type="line"/>
      <point x="249" y="409"/>
      <point x="291" y="434"/>
      <point x="348" y="434" type="curve" smooth="yes"/>
      <point x="390" y="434"/>
      <point x="410" y="420"/>
      <point x="410" y="398" type="curve" smooth="yes"/>
      <point x="410" y="375"/>
      <point x="394" y="356"/>
      <point x="338" y="319" type="curve" smooth="yes"/>
      <point x="42" y="125" type="line"/>
    </contour>
  </outline>
</glyph>
<glyph name="verticalbar-cy" format="2">
  <advance width="316"/>
  <anchor x="102" y="0" name="_bottom"/>
  <outline>
    <contour>
      <point x="216" y="36" type="line"/>
      <point x="6" y="36" type="line"/>
      <point x="-22" y="-101" type="line"/>
      <point x="188" y="-101" type="line"/>
    </contour>
  </outline>
</glyph>
<glyph name="w.sc.ss01" format="2">
  <advance width="1054"/>
  <anchor x="590" y="582" name="top"/>
  <outline>
    <contour>
      <point x="291" y="-15" type="curve" smooth="yes"/>
      <point x="394" y="-15"/>
      <point x="475" y="18"/>
      <point x="533" y="67" type="curve"/>
      <point x="450" y="67" type="line"/>
      <point x="497" y="17"/>
      <point x="564" y="-15"/>
      <point x="654" y="-15" type="curve" smooth="yes"/>
      <point x="859" y="-15"/>
      <point x="957" y="62"/>
      <point x="997" y="249" type="curve" smooth="yes"/>
      <point x="1068" y="582" type="line"/>
      <point x="838" y="582" type="line"/>
      <point x="766" y="244" type="line" smooth="yes"/>
      <point x="753" y="183"/>
      <point x="734" y="165"/>
      <point x="686" y="165" type="curve" smooth="yes"/>
      <point x="643" y="165"/>
      <point x="621" y="185"/>
      <point x="632" y="237" type="curve" smooth="yes"/>
      <point x="705" y="582" type="line"/>
      <point x="475" y="582" type="line"/>
      <point x="402" y="242" type="line" smooth="yes"/>
      <point x="389" y="183"/>
      <point x="373" y="165"/>
      <point x="324" y="165" type="curve" smooth="yes"/>
      <point x="281" y="165"/>
      <point x="258" y="185"/>
      <point x="269" y="237" type="curve" smooth="yes"/>
      <point x="342" y="582" type="line"/>
      <point x="112" y="582" type="line"/>
      <point x="44" y="260" type="line" smooth="yes"/>
      <point x="8" y="89"/>
      <point x="131" y="-15"/>
    </contour>
  </outline>
</glyph>
<glyph name="yeru-cy.ss01" format="2">
  <advance width="926"/>
  <anchor x="518" y="547" name="top"/>
  <outline>
    <contour>
      <point x="593" y="0" type="line"/>
      <point x="818" y="0" type="line"/>
      <point x="927" y="547" type="line"/>
      <point x="702" y="547" type="line"/>
    </contour>
    <contour>
      <point x="278" y="-16" type="curve" smooth="yes"/>
      <point x="482" y="-16"/>
      <point x="604" y="79"/>
      <point x="604" y="237" type="curve" smooth="yes"/>
      <point x="604" y="352"/>
      <point x="540" y="410"/>
      <point x="410" y="410" type="curve" smooth="yes"/>
      <point x="361" y="410"/>
      <point x="318" y="402"/>
      <point x="288" y="386" type="curve"/>
      <point x="320" y="547" type="line"/>
      <point x="95" y="547" type="line"/>
      <point x="31" y="230" type="line" smooth="yes"/>
      <point x="-1" y="70"/>
      <point x="84" y="-16"/>
    </contour>
    <contour>
      <point x="298" y="136" type="curve" smooth="yes"/>
      <point x="259" y="136"/>
      <point x="243" y="159"/>
      <point x="251" y="200" type="curve" smooth="yes"/>
      <point x="259" y="241" type="line"/>
      <point x="277" y="256"/>
      <point x="302" y="265"/>
      <point x="326" y="265" type="curve" smooth="yes"/>
      <point x="357" y="265"/>
      <point x="373" y="248"/>
      <point x="373" y="213" type="curve" smooth="yes"/>
      <point x="373" y="165"/>
      <point x="343" y="136"/>
    </contour>
  </outline>
</glyph>
